<?xml version="1.0" encoding="UTF-8" standalone="no"?><!DOCTYPE svg PUBLIC "-//W3C//DTD SVG 1.1//EN" "http://www.w3.org/Graphics/SVG/1.1/DTD/svg11.dtd"><svg width="100%" height="100%" viewBox="0 0 371 448" version="1.1" xmlns="http://www.w3.org/2000/svg" xmlns:xlink="http://www.w3.org/1999/xlink" xml:space="preserve" xmlns:serif="http://www.serif.com/" style="fill-rule:evenodd;clip-rule:evenodd;stroke-linecap:round;stroke-linejoin:round;stroke-miterlimit:1.5;"><rect id="Artboard1" x="0" y="0" width="370.135" height="447.357" style="fill:none;"/><g><path d="M351.846,259.097c0.138,0.53 0.706,2.705 -2.765,6.257c-0.601,0.616 -3.354,3.432 -9.041,5.831c-13.363,5.635 -26.872,10.919 -40.269,16.474c-9.102,3.774 -18.048,7.928 -27.226,11.513c-1.175,0.459 -2.481,0.512 -3.741,0.581c-5.563,0.305 -9.719,-2.13 -10.463,-2.566c-0.744,-0.436 -4.897,-2.87 -7.352,-7.874c-0.265,-0.541 -1.693,-3.451 -1.902,-7.289c-0.304,-5.566 2.13,-9.719 2.566,-10.463c0.436,-0.744 2.87,-4.897 7.874,-7.352c1.13,-0.554 2.291,-1.145 3.538,-1.319c9.762,-1.359 19.601,-2.107 29.389,-3.263c14.399,-1.7 28.782,-3.537 43.174,-5.306c0.855,-0.105 5.984,-0.735 10.748,0.668c4.764,1.403 5.332,3.579 5.47,4.108Z"/><path d="M212.046,216.079c-2.249,-0.959 -4.632,-1.65 -6.746,-2.878c-0.805,-0.468 -6.283,-3.65 -7.93,-8.526c-0.49,-1.451 -0.728,-3.148 -0.21,-4.588c10.39,-28.917 21.903,-57.418 32.81,-86.144c6.772,-17.838 13.484,-35.698 20.225,-53.548c0.148,-0.391 0.981,-2.597 3.423,-3.942c0.498,-0.274 3.866,-2.128 7.087,0.554c2.019,1.681 2.377,4.029 2.438,4.429c0.135,0.885 0.116,1.807 -0.057,2.686c-3.7,18.721 -7.735,37.375 -11.554,56.072c-17.933,87.785 -16.843,88.17 -18.355,90.335c-0.876,1.255 -1.442,2.801 -2.632,3.764c-3.998,3.238 -10.33,2.998 -11.26,2.962c-0.008,-0 -7.235,-1.175 -7.239,-1.177Z"/><path d="M244.852,244.528c0,0 77.084,-42.644 23.075,39.679l-23.075,-39.679Z" style="stroke:#000;stroke-width:27.5px;"/><path d="M182.311,212.361c-2.427,-0.351 -4.929,-0.357 -7.28,-1.054c-2.115,-0.627 -4.166,-1.59 -5.962,-2.87c-4.013,-2.859 -4.939,-6.098 -5.125,-6.75c-0.247,-0.865 -0.442,-1.775 -0.383,-2.673c1.612,-24.469 3.696,-48.905 5.393,-73.368c1.982,-28.577 3.763,-57.168 5.644,-85.752c0.031,-0.478 0.209,-3.182 2.475,-5.447c0.466,-0.466 3.598,-3.598 8.076,-1.657c2.79,1.209 3.917,3.686 4.11,4.11c0.425,0.935 0.691,1.96 0.765,2.985c2.064,28.575 3.662,57.181 5.644,85.762c1.697,24.46 3.781,48.892 5.393,73.358c0.059,0.901 -0.135,1.814 -0.383,2.683c-0.186,0.652 -1.11,3.89 -5.125,6.75c-1.796,1.28 -3.847,2.243 -5.962,2.87c-0.008,0.002 -7.276,1.055 -7.28,1.054Z"/><path d="M145.271,221.073c-0.965,0.329 -6.507,2.219 -12.721,-0.834c-1.913,-0.94 -3.689,-2.261 -5.1,-3.86c-0.385,-0.436 -2.598,-2.943 -3.552,-6.34c-1.508,-5.369 -13.576,-48.337 -18.453,-67.223c-5.382,-20.844 -13.875,-58.312 -15.027,-63.396c-0.086,-0.378 -0.567,-2.503 0.566,-4.81c0.227,-0.462 1.783,-3.628 5.531,-3.291c2.379,0.214 3.923,1.79 4.184,2.056c1.064,1.086 1.011,1.137 1.647,2.518c3.989,8.657 8.003,17.303 11.965,25.972c1.199,2.622 8.876,19.419 14.662,32.926c7.662,17.886 24.384,59.317 26.472,64.488c1.32,3.271 1.101,6.609 1.062,7.189c-0.14,2.127 -0.738,4.258 -1.678,6.172c-3.053,6.214 -8.595,8.104 -9.56,8.434Z"/><path d="M109.844,238.341c0,0 -25.2,158.301 46.524,176.204c71.724,17.903 100.563,-70.67 102.621,-111.187c2.057,-40.517 -34.774,-153.59 -149.144,-65.016Z" style="fill:none;stroke:#000;stroke-width:27.5px;"/><path d="M117.074,234.835c-0.737,0.705 -4.967,4.753 -11.89,4.6c-1.059,-0.023 -7.205,-0.159 -12.041,-5.503c-10.913,-12.058 -11.041,-11.946 -21.411,-24.472c-1.471,-1.777 -9.23,-11.758 -18.119,-23.045c-2.177,-2.764 -23.055,-29.273 -27.138,-34.599c-0.308,-0.401 -2.037,-2.657 -1.963,-6.007c0.015,-0.67 0.116,-5.263 4.72,-6.915c2.926,-1.05 5.622,-0.037 6.077,0.134c3.091,1.161 2.808,1.687 47.033,39.599c1.814,1.555 3.647,3.088 5.458,4.646c1.983,1.706 3.984,3.39 5.923,5.145c14.962,13.543 22.042,20.942 23.87,22.853c0.705,0.737 4.753,4.967 4.6,11.89c-0.153,6.922 -4.383,10.97 -5.12,11.675Z"/><path d="M117.218,214.835c0.285,0.979 1.918,6.602 -1.418,12.669c-1.027,1.868 -2.429,3.581 -4.09,4.917c-0.427,0.343 -3.038,2.443 -6.089,3.138c-7.542,1.72 -7.515,1.884 -15.182,2.902c-1.092,0.145 -7.18,0.564 -14.066,1.129c-10.433,0.855 -10.43,0.851 -20.871,1.63c-3.537,0.264 -6.115,-1.153 -6.587,-1.413c-2.454,-1.349 -2.243,-1.642 -3.647,-4.061c-0.004,-0.007 -0.107,-2.621 -0.104,-2.64c0.483,-2.874 2.585,-4.983 2.929,-5.327c0.203,-0.204 1.32,-1.324 2.879,-2.157c9.233,-4.936 9.228,-4.938 18.495,-9.806c6.117,-3.213 11.481,-6.12 12.481,-6.583c7.019,-3.248 7.084,-3.095 14.374,-5.684c2.949,-1.047 6.278,-0.674 6.822,-0.612c2.119,0.238 4.22,0.933 6.088,1.96c6.067,3.336 7.701,8.958 7.985,9.938Z"/><path d="M209.526,196.535c0.02,-1.02 0.135,-6.874 5.125,-11.673c1.537,-1.478 3.385,-2.696 5.369,-3.476c0.51,-0.201 3.627,-1.427 6.747,-1.183c7.712,0.604 7.735,0.438 15.358,1.749c1.086,0.187 7.022,1.599 13.764,3.11c10.214,2.29 10.211,2.293 20.409,4.657c3.455,0.801 5.494,2.922 5.868,3.31c1.941,2.018 1.653,2.235 2.273,4.962c0.002,0.008 -0.678,2.534 -0.687,2.551c-1.316,2.6 -3.951,3.987 -4.382,4.213c-0.255,0.134 -1.655,0.871 -3.39,1.203c-10.284,1.964 -10.28,1.966 -20.576,3.855c-6.796,1.246 -12.783,2.425 -13.875,2.569c-7.668,1.011 -7.684,0.846 -15.414,1.147c-3.127,0.122 -6.194,-1.226 -6.695,-1.447c-1.952,-0.858 -3.751,-2.147 -5.228,-3.684c-4.799,-4.991 -4.684,-10.845 -4.664,-11.864Z"/></g></svg>