<?xml version="1.0" encoding="UTF-8" standalone="no"?>
<!-- Created with Inkscape (http://www.inkscape.org/) -->

<svg
   width="467.83105"
   height="400.87393"
   viewBox="0 0 467.83105 398.87393"
   version="1.1"
   id="svg8"
   inkscape:version="1.4.3 (0d15f75042, 2025-12-25)"
   sodipodi:docname="logitech-g502-x.svg"
   inkscape:export-filename="/home/jimmac/logitech-g403.png"
   inkscape:export-xdpi="96"
   inkscape:export-ydpi="96"
   xmlns:inkscape="http://www.inkscape.org/namespaces/inkscape"
   xmlns:sodipodi="http://sodipodi.sourceforge.net/DTD/sodipodi-0.dtd"
   xmlns="http://www.w3.org/2000/svg"
   xmlns:svg="http://www.w3.org/2000/svg"
   xmlns:rdf="http://www.w3.org/1999/02/22-rdf-syntax-ns#"
   xmlns:cc="http://creativecommons.org/ns#"
   xmlns:dc="http://purl.org/dc/elements/1.1/">
  <defs
     id="defs2" />
  <sodipodi:namedview
     id="base"
     pagecolor="#ffffff"
     bordercolor="#666666"
     borderopacity="1.0"
     inkscape:pageopacity="0.0"
     inkscape:pageshadow="2"
     inkscape:zoom="2.8284272"
     inkscape:cx="157.86158"
     inkscape:cy="177.83735"
     inkscape:document-units="px"
     inkscape:current-layer="g1170"
     inkscape:document-rotation="0"
     showgrid="false"
     units="px"
     borderlayer="true"
     inkscape:showpageshadow="false"
     inkscape:pagecheckerboard="false"
     showguides="true"
     inkscape:window-width="3072"
     inkscape:window-height="1196"
     inkscape:window-x="0"
     inkscape:window-y="0"
     inkscape:window-maximized="1"
     inkscape:snap-global="false"
     fit-margin-top="20"
     fit-margin-bottom="20"
     fit-margin-left="0"
     fit-margin-right="0"
     inkscape:deskcolor="#d1d1d1">
    <inkscape:grid
       type="xygrid"
       id="grid956"
       originx="-16.168953"
       originy="-1.1260801"
       spacingy="1"
       spacingx="1"
       units="px" />
  </sodipodi:namedview>
  <metadata
     id="metadata5">
    <rdf:RDF>
      <cc:Work
         rdf:about="">
        <dc:format>image/svg+xml</dc:format>
        <dc:type
           rdf:resource="http://purl.org/dc/dcmitype/StillImage" />
        <dc:title />
      </cc:Work>
    </rdf:RDF>
  </metadata>
  <g
     inkscape:groupmode="layer"
     id="Device"
     inkscape:label="Device"
     transform="translate(-16.168953,-400)"
     style="display:inline">
    <g
       transform="translate(-374)"
       id="g1170"
       style="fill:none">
      <path
         inkscape:connector-curvature="0"
         id="path981"
         d="m 618.01948,461.30353 -43.40756,16.61713 c -2.22449,1.86937 -9.89196,5.52668 -10.73884,8.00148 -2.72978,17.00689 -4.95532,37.7841 -10.68613,60.82696 l -3.63304,10.8242 c -1.31838,10.14466 -1.35745,13.02311 -1.6215,20.49577 0,0 -9.25458,13.23407 -12.30377,16.15664 -3.17708,3.04514 -11.63158,73.43883 -8.3723,79.7235 3.25927,6.28467 27.55747,20.31437 30.6627,26.48716 3.10522,6.17279 18.69687,51.65064 25.55826,57.42954 16.34037,13.76242 28.28693,16.1415 28.28693,16.1415 11.17229,2.44441 30.24514,1.07162 39.85805,-1.0925 0,0 22.99271,-6.99651 34.8317,-22.83483 11.83899,-15.83832 17.68801,-34.09035 17.68801,-34.09035 4.26474,-13.18952 5.96862,-28.63873 5.68596,-43.39276 -0.21781,-11.36893 -5.62963,-26.06739 -6.9761,-35.20605 -1.34646,-9.13867 -0.51526,-36.12387 -0.51526,-36.12387 0,0 -4.72162,-66.844 -5.82442,-75.72956 -1.05243,-13.62799 -5.87771,-44.43232 -8.20795,-47.23223 l -40.37177,-24.81119 z"
         style="color:#000000;overflow:visible;opacity:1;vector-effect:none;fill:none;fill-opacity:1;stroke:#babdb6;stroke-width:3;stroke-linecap:butt;stroke-linejoin:miter;stroke-miterlimit:4;stroke-dasharray:none;stroke-dashoffset:0;stroke-opacity:1;marker:none;marker-start:none;marker-mid:none;marker-end:none;paint-order:normal"
         sodipodi:nodetypes="ccccccsccsccscssccccc" />
      <path
         sodipodi:nodetypes="cccccccccc"
         inkscape:connector-curvature="0"
         id="path1014"
         d="m 621.1765,608.93949 0.56913,15.96131 c 2.62858,0.8078 27.61141,-5.27122 27.61141,-5.27122 l 0.33872,-17.51303 50.97039,-12.88689 c 0,0 -16.64625,93.17389 -25.49954,94.00581 -5.47205,7.62657 -77.80091,-6.01406 -85.60718,-10.13108 -5.46919,-1.87988 -10.58371,-3.35469 -13.72252,-12.83918 l -7.46455,-32.35915 z"
         style="color:#000000;overflow:visible;opacity:1;vector-effect:none;fill:none;fill-opacity:1;stroke:#bfc2bb;stroke-width:2;stroke-linecap:square;stroke-linejoin:miter;stroke-miterlimit:4;stroke-dasharray:none;stroke-dashoffset:0;stroke-opacity:1;marker:none;marker-start:none;marker-mid:none;marker-end:none;paint-order:normal" />
      <path
         sodipodi:nodetypes="cccsc"
         inkscape:connector-curvature="0"
         id="path1144"
         d="m 684.3037,753.45974 -12.85124,-52.97089 c -1.84536,-9.76893 -47.4674,-6.4526 -91.09872,-20.67969 -3.87538,-1.38662 -4.59934,-2.69099 -7.04573,-6.34042 -0.90693,-1.35292 -4.96721,-11.80863 -4.96721,-11.80863"
         style="color:#000000;overflow:visible;opacity:1;vector-effect:none;fill:none;fill-opacity:1;stroke:#babdb6;stroke-width:1;stroke-linecap:butt;stroke-linejoin:bevel;stroke-miterlimit:4;stroke-dasharray:none;stroke-dashoffset:0;stroke-opacity:1;marker:none;marker-start:none;marker-mid:none;marker-end:none;paint-order:normal" />
      <path
         sodipodi:nodetypes="ccssc"
         inkscape:connector-curvature="0"
         id="path1030"
         d="m 540.66953,588.7746 c -9.63259,26.32633 -17.43353,53.26321 -13.10788,84.24229 0,0 -0.19659,5.08168 -3.37796,-4.61975 -2.21399,-6.75144 8.20556,-70.27846 10.81837,-73.76721 2.70718,-3.61475 5.66747,-5.85533 5.66747,-5.85533 z"
         style="color:#000000;overflow:visible;opacity:1;vector-effect:none;fill:none;fill-opacity:1;stroke:#babdb6;stroke-width:2;stroke-linecap:butt;stroke-linejoin:bevel;stroke-miterlimit:4;stroke-dasharray:none;stroke-dashoffset:0;stroke-opacity:1;marker:none;marker-start:none;marker-mid:none;marker-end:none;paint-order:normal" />
      <path
         inkscape:connector-curvature="0"
         id="button0"
         d="m 618.45939,461.52603 -44.51847,16.91374 c 0.36504,52.87754 -6.49824,96.39545 1.01001,147.09793 l 46.26742,-16.4844 c 0,0 -3.01333,-56.46772 -2.76309,-82.03474 0.16651,-21.17461 0.16433,-44.31808 0.004,-65.49253 z"
         style="color:#000000;overflow:visible;opacity:1;vector-effect:none;fill:none;fill-opacity:1;stroke:#babdb6;stroke-width:2;stroke-linecap:butt;stroke-linejoin:bevel;stroke-miterlimit:4;stroke-dasharray:none;stroke-dashoffset:0;stroke-opacity:1;marker:none;marker-start:none;marker-mid:none;marker-end:none;paint-order:normal"
         sodipodi:nodetypes="cccccc"
         inkscape:label="BUTTON_LMB" />
      <path
         inkscape:connector-curvature="0"
         id="button1"
         d="m 647.96103,453.90927 c 0,0 0.21957,34.50449 1.11654,71.00382 0.89697,36.49932 0.60175,77.20425 0.60175,77.20425 l 50.91252,-12.22056 c 0,0 -3.92931,-42.2843 -5.33531,-61.40186 -1.4061,-19.11755 -5.76735,-47.16259 -8.15495,-50.69369 -2.3876,-3.5311 -39.14055,-23.89196 -39.14055,-23.89196 z"
         style="color:#000000;overflow:visible;opacity:1;vector-effect:none;fill:none;fill-opacity:1;stroke:#babdb6;stroke-width:2;stroke-linecap:butt;stroke-linejoin:bevel;stroke-miterlimit:4;stroke-dasharray:none;stroke-dashoffset:0;stroke-opacity:1;marker:none;marker-start:none;marker-mid:none;marker-end:none;paint-order:normal"
         sodipodi:nodetypes="cscccsc"
         inkscape:label="BUTTON_RMB" />
      <path
         inkscape:connector-curvature="0"
         id="button8"
         d="m 628.04958,593.10024 0.49507,14.70392 12.83009,-3.38427 0.40624,-15.06815 z"
         style="color:#000000;overflow:visible;opacity:1;vector-effect:none;fill:none;fill-opacity:1;stroke:#babdb6;stroke-width:1;stroke-linecap:butt;stroke-linejoin:bevel;stroke-miterlimit:4;stroke-dasharray:none;stroke-dashoffset:0;stroke-opacity:1;marker:none;marker-start:none;marker-mid:none;marker-end:none;paint-order:normal"
         inkscape:label="#path1064"
         sodipodi:nodetypes="ccccc" />
      <path
         inkscape:connector-curvature="0"
         id="path1066"
         d="m 627.90449,577.48074 0.0433,13.61229 13.8314,-3.62778 0.26977,-12.19815 z"
         style="color:#000000;overflow:visible;opacity:1;vector-effect:none;fill:none;fill-opacity:1;stroke:#babdb6;stroke-width:1;stroke-linecap:butt;stroke-linejoin:bevel;stroke-miterlimit:4;stroke-dasharray:none;stroke-dashoffset:0;stroke-opacity:1;marker:none;marker-start:none;marker-mid:none;marker-end:none;paint-order:normal"
         sodipodi:nodetypes="ccccc" />
      <rect
         style="color:#000000;overflow:visible;opacity:1;vector-effect:none;fill:none;fill-opacity:1;stroke:#babdb6;stroke-width:1;stroke-linecap:butt;stroke-linejoin:bevel;stroke-miterlimit:4;stroke-dasharray:none;stroke-dashoffset:0;stroke-opacity:1;marker:none;marker-start:none;marker-mid:none;marker-end:none;paint-order:normal"
         id="button2"
         width="17.152637"
         height="51.954956"
         x="625.46503"
         y="503.7612"
         rx="8.5763187"
         ry="8.5763187"
         inkscape:label="#rect1068" />
      <path
         inkscape:connector-curvature="0"
         id="button9"
         d="m 571.71502,536.16159 -13.37348,-0.0202 6.35231,-51.77747 8.21575,-5.98232 z"
         style="color:#000000;overflow:visible;opacity:1;vector-effect:none;fill:none;fill-opacity:1;stroke:#babdb6;stroke-width:1;stroke-linecap:butt;stroke-linejoin:bevel;stroke-miterlimit:4;stroke-dasharray:none;stroke-dashoffset:0;stroke-opacity:1;marker:none;marker-start:none;marker-mid:none;marker-end:none;paint-order:normal"
         inkscape:label="#path1098"
         sodipodi:nodetypes="ccccc" />
      <path
         style="color:#000000;display:inline;overflow:visible;opacity:1;vector-effect:none;fill:none;fill-opacity:1;stroke:#babdb6;stroke-width:1;stroke-linecap:butt;stroke-linejoin:bevel;stroke-miterlimit:4;stroke-dasharray:none;stroke-dashoffset:0;stroke-opacity:1;marker:none;marker-start:none;marker-mid:none;marker-end:none;paint-order:normal"
         d="m 555.80382,560.27286 -0.30837,24.78125 c 0,0 -9.03682,-4.60654 -9.90319,-7.77545 0.0415,-3.60362 -0.18445,-19.91344 2.0354,-22.18465 1.67175,-1.71044 8.17616,5.17885 8.17616,5.17885 z"
         id="button4"
         inkscape:connector-curvature="0"
         sodipodi:nodetypes="cccsc"
         inkscape:label="#path1473" />
      <path
         inkscape:connector-curvature="0"
         id="button5"
         d="m 557.26352,587.31588 9.66008,34.78358 -6.52394,1.18885 -2.64044,-3.13786 -5.42988,-24.0563 z"
         style="color:#000000;overflow:visible;opacity:1;vector-effect:none;fill:none;fill-opacity:1;stroke:#babdb6;stroke-width:1;stroke-linecap:butt;stroke-linejoin:bevel;stroke-miterlimit:4;stroke-dasharray:none;stroke-dashoffset:0;stroke-opacity:1;marker:none;marker-start:none;marker-mid:none;marker-end:none;paint-order:normal"
         sodipodi:nodetypes="cccccc"
         inkscape:label="#path1118" />
      <path
         inkscape:connector-curvature="0"
         id="button10"
         d="m 571.49101,536.36645 -13.87865,3.19172 c 0,0 -2.16679,33.15285 -1.42167,41.4553 0.50637,5.64215 3.92974,21.91823 5.27494,27.02783 0.86112,3.27084 5.60182,14.75965 7.21442,18.80434 0.41801,1.04843 5.95904,-1.02691 5.95904,-1.02691 0,0 -4.24473,-33.04231 -3.72597,-51.74587 0.46644,-16.81736 0.57789,-37.70641 0.57789,-37.70641 z"
         style="color:#000000;overflow:visible;opacity:1;vector-effect:none;fill:none;fill-opacity:1;stroke:#babdb6;stroke-width:1;stroke-linecap:butt;stroke-linejoin:bevel;stroke-miterlimit:4;stroke-dasharray:none;stroke-dashoffset:0;stroke-opacity:1;marker:none;marker-start:none;marker-mid:none;marker-end:none;paint-order:normal"
         inkscape:label="#path1100"
         sodipodi:nodetypes="ccssscsc" />
      <path
         inkscape:connector-curvature="0"
         id="button3"
         d="m 566.81358,621.91645 -6.28148,1.28687 -0.36451,5.59427 8.12985,32.77766 4.22971,3.66243 4.4326,-1.32559 z"
         style="color:#000000;overflow:visible;opacity:1;vector-effect:none;fill:none;fill-opacity:1;stroke:#babdb6;stroke-width:1;stroke-linecap:butt;stroke-linejoin:bevel;stroke-miterlimit:4;stroke-dasharray:none;stroke-dashoffset:0;stroke-opacity:1;marker:none;marker-start:none;marker-mid:none;marker-end:none;paint-order:normal"
         inkscape:label="#path1120"
         sodipodi:nodetypes="ccccccc" />
      <path
         inkscape:connector-curvature="0"
         id="button7"
         d="m 654.80262,526.99557 v 7.97553 l 3.83318,-3.83321 z"
         style="color:#000000;overflow:visible;opacity:1;vector-effect:none;fill:none;fill-opacity:1;stroke:none;stroke-width:1;stroke-linecap:butt;stroke-linejoin:bevel;stroke-miterlimit:4;stroke-dasharray:none;stroke-dashoffset:0;stroke-opacity:1;marker:none;marker-start:none;marker-mid:none;marker-end:none;paint-order:normal"
         inkscape:label="#path1146" />
      <path
         style="color:#000000;overflow:visible;opacity:1;vector-effect:none;fill:none;fill-opacity:1;stroke:none;stroke-width:1;stroke-linecap:butt;stroke-linejoin:bevel;stroke-miterlimit:4;stroke-dasharray:none;stroke-dashoffset:0;stroke-opacity:1;marker:none;marker-start:none;marker-mid:none;marker-end:none;paint-order:normal"
         d="m 612.84542,526.99557 v 7.97553 l -3.83318,-3.83321 z"
         id="button6"
         inkscape:connector-curvature="0"
         sodipodi:nodetypes="cccc" />
    </g>
    <path
       sodipodi:nodetypes="ccsc"
       inkscape:connector-curvature="0"
       id="path1144-6"
       d="m 316.8262,743.07934 c -3.32917,-8.73134 -10.57574,-41.72329 -8.38792,-48.64443 0,0 6.8191,-30.41972 12.47429,-50.46415 4.19492,-14.86859 6.44152,-43.37742 6.44152,-43.37742"
       style="color:#000000;display:inline;overflow:visible;vector-effect:none;fill:none;fill-opacity:1;stroke:#babdb6;stroke-width:1;stroke-linecap:butt;stroke-linejoin:bevel;stroke-miterlimit:4;stroke-dasharray:none;stroke-dashoffset:0;stroke-opacity:1;marker:none;marker-start:none;marker-mid:none;marker-end:none;paint-order:normal" />
  </g>
  <g
     inkscape:groupmode="layer"
     id="Buttons"
     inkscape:label="Buttons"
     style="display:inline"
     transform="translate(-16.168953)" />
  <g
     inkscape:groupmode="layer"
     id="LEDs"
     inkscape:label="LEDs" />
</svg>
