<svg xmlns="http://www.w3.org/2000/svg" viewBox="0 0 60 60" fill="currentColor">
  <path d="M29.999 43c-2.757 0-5 2.243-5 5s2.243 5 5 5 5-2.243 5-5-2.243-5-5-5Zm0 8c-1.654 0-3-1.346-3-3s1.346-3 3-3 3 1.346 3 3-1.346 3-3 3Z"/>
  <path d="M46.971 6.503a1.002 1.002 0 0 0-.8-1.222l-13-2.267a1.003 1.003 0 0 0-1.172.986v3h-1V1a1 1 0 1 0-2 0v6h-1V4a1 1 0 0 0-1.172-.986l-13 2.267a1.002 1.002 0 0 0-.8 1.222c.026.109 2.673 11.054 2.916 16.541.034.772.055 2.562.055 3.456 0 3.904-.391 6.604-1.348 9.316-1.184 3.358-1.653 6.71-1.394 9.961.075.933.14 1.278.183 1.458C15.221 54.632 22.185 60 29.999 60s14.778-5.369 16.559-12.769c.043-.182.109-.529.184-1.455.259-3.251-.211-6.602-1.395-9.96-.957-2.712-1.348-5.412-1.348-9.316 0-.894.021-2.684.056-3.456.243-5.487 2.889-16.432 2.916-16.541ZM33.999 5.189l10.782 1.88C44.147 9.793 42.498 17.189 42.116 22h-8.117V5.189Zm-6 16v-1h4v1h-4Zm4-5h-4v-1h4v1Zm-4 2h4v1h-4v-1Zm4-5h-4v-1h4v1Zm0-3h-4V9h4v1Zm-16.782-3.12 10.782-1.88V22h-8.117c-.382-4.811-2.031-12.207-2.665-14.931Zm29.53 38.548c-.063.793-.115 1.069-.135 1.148C43.046 53.275 36.9 58 29.999 58s-13.047-4.725-14.613-11.231c-.02-.079-.07-.351-.134-1.151-.237-2.969.195-6.043 1.286-9.135 1.037-2.944 1.461-5.836 1.461-9.983 0-.552-.009-1.609-.027-2.5h11.027v5a1 1 0 1 0 2 0v-5h11.027c-.018.891-.027 1.948-.027 2.5 0 4.147.424 7.039 1.461 9.982 1.091 3.092 1.523 6.165 1.287 9.135Z"/>
</svg>
