<svg xmlns="http://www.w3.org/2000/svg" viewBox="0 0 511.407 511.407" fill="currentColor">
  <path d="M438.919,120.671c-4.78-8.412-19.849-17.029-44.79-25.612c-19.565-6.733-39.783-11.436-49.166-11.436c-15.717,0-30.27,10.995-36.081,16h-52.919c-0.087,0-0.173,0.001-0.259,0.004c-0.086-0.002-0.173-0.004-0.26-0.004h-52.919c-5.811-5.005-20.364-16-36.081-16c-9.383,0-29.601,4.702-49.166,11.436c-24.941,8.583-40.01,17.2-44.79,25.612C71.47,122.464-27.814,303.793,7.65,388.162c8.506,20.236,23.899,33.423,45.75,39.195c1.08,0.285,2.195,0.427,3.354,0.427c12.034,0,28.7-15.223,57.415-42.445c12.125-11.495,24.662-23.381,35.641-32.254c15.033-12.15,20.836-13.462,22.634-13.462h166.519c1.797,0,7.601,1.312,22.633,13.461c10.979,8.874,23.517,20.759,35.641,32.254c28.716,27.224,45.38,42.448,57.415,42.446c1.158,0,2.275-0.142,3.354-0.427c21.852-5.771,37.244-18.959,45.75-39.194C539.22,303.8,439.938,122.465,438.919,120.671z M489.007,381.963c-6.512,15.49-17.836,25.242-34.611,29.798c-1.018-0.208-5.267-1.602-16.52-10.96c-8.731-7.26-18.882-16.884-29.63-27.074c-32.884-31.175-53.956-50.104-69.282-50.104H172.444c-15.326,0-36.399,18.929-69.283,50.104c-10.748,10.189-20.899,19.813-29.63,27.073c-11.253,9.357-15.502,10.752-16.52,10.96c-16.775-4.556-28.1-14.308-34.611-29.799c-12.63-30.047-6.547-81.548,17.592-148.935c18.149-50.664,41.581-95.956,46.408-104.452c1.458-2.566,10.877-9.713,36.085-18.388c19.216-6.613,37.441-10.564,43.959-10.564c10.788,0,23.467,9.928,27.431,13.743c1.493,1.447,3.49,2.257,5.569,2.257h56c0.087,0,0.173-0.001,0.26-0.004c0.086,0.002,0.172,0.004,0.259,0.004h56c2.079,0,4.077-0.81,5.569-2.257c3.942-3.822,16.554-13.743,27.431-13.743c6.518,0,24.743,3.952,43.959,10.564c25.208,8.675,34.626,15.821,36.085,18.388c4.828,8.497,28.261,53.793,46.408,104.453C495.554,300.415,501.637,351.915,489.007,381.963z"/>
  <path d="m192.521,305.35c6.4,0,11.589-5.189,11.589-11.589v-11.589h11.589c6.4,0,11.589-5.189,11.589-11.589 0-6.4-5.189-11.589-11.589-11.589h-11.589v-11.589c0-6.4-5.189-11.589-11.589-11.589-6.4,0-11.589,5.189-11.589,11.589v11.589h-11.589c-6.4,0-11.589,5.189-11.589,11.589 0,6.4,5.189,11.589,11.589,11.589h11.589v11.589c0,6.4,5.189,11.589,11.589,11.589z"/>
  <path d="M352.895,244.271c-4.047,1.772-5.892,6.49-4.12,10.537c1.771,4.046,2.669,8.358,2.669,12.819c0,17.643-14.354,31.996-31.996,31.996s-31.996-14.354-31.996-31.996 14.354-31.996,31.996-31.996c4.458,0,8.767,0.896,12.809,2.665c4.049,1.771,8.765-0.074,10.536-4.123 1.771-4.048-0.075-8.765-4.123-10.536c-6.077-2.658-12.544-4.006-19.222-4.006c-26.465,0-47.996,21.531-47.996,47.996s21.531,47.996,47.996,47.996 47.996-21.531,47.996-47.996c0-6.683-1.35-13.155-4.012-19.236C361.66,244.343,356.942,242.498,352.895,244.271z"/>
  <path d="M319.448,251.628c-0.001,0-0.003,0-0.004,0s-0.003,0-0.004,0c-8.822,0-16,7.177-16,15.999 0,8.822,7.177,15.999,16,15.999 0.001,0,0.003,0,0.004,0s0.003,0,0.004,0c8.822,0,16-7.177,16-15.999C335.448,258.805,328.271,251.628,319.448,251.628z"/>
  <path d="M127.448,139.623c-26.465,0-47.996,21.531-47.996,47.996s21.531,47.996,47.996,47.996c1.723,0,3.424-0.096,5.101-0.273 0.413-0.044,0.816-0.137,1.226-0.192c1.268-0.168,2.533-0.345,3.768-0.611 0.424-0.091,0.837-0.229,1.259-0.332c1.2-0.293,2.397-0.591,3.56-0.973 0.44-0.144,0.866-0.335,1.302-0.492c1.166-0.42,2.333-0.841,3.455-1.347 10.683-4.819,19.299-13.438,24.114-23.123-0.239,0.468-0.518,0.903-0.832,1.303-0.157,0.2-0.323,0.392-0.497,0.574 0.173-0.182,0.34-0.374,0.497-0.574 0.314-0.4,0.593-0.835,0.832-1.303 0.508-1.128,0.929-2.299,1.351-3.471 0.153-0.427,0.341-0.844,0.482-1.275 0.383-1.168,0.683-2.37,0.976-3.576 0.101-0.417,0.239-0.824,0.328-1.243 0.267-1.242,0.446-2.515,0.614-3.79 0.053-0.401,0.143-0.795,0.185-1.198 0.178-1.676,0.273-3.378,0.273-5.1 0-1.729-0.096-3.435-0.275-5.117-0.037-0.354-0.119-0.701-0.163-1.053-0.171-1.323-0.359-2.64-0.636-3.927-0.092-0.43-0.233-0.848-0.337-1.276-0.292-1.192-0.589-2.383-0.968-3.54-0.146-0.447-0.34-0.881-0.5-1.325-0.418-1.159-0.835-2.319-1.338-3.435C166.407,148.649,157.787,140.033,147.102,135.218c0.468,0.239,0.903,0.518,1.303,0.832 0.2,0.157,0.392,0.323,0.574,0.497-0.182-0.174-0.374-0.34-0.574-0.497-0.4-0.314-0.835-0.593-1.303-0.832-1.114-0.502-2.272-0.918-3.429-1.336-0.445-0.16-0.879-0.354-1.329-0.501-1.162-0.38-2.358-0.679-3.557-0.971-0.418-0.102-0.828-0.238-1.249-0.328-1.245-0.268-2.521-0.449-3.801-0.617-0.399-0.052-0.79-0.141-1.191-0.181C130.873,139.719,129.171,139.623,127.448,139.623zM127.448,155.623c1.103,0,2.193,0.055,3.268,0.165 1.028,0.103,2.043,0.266,3.049,0.467 0.041,0.008,0.085,0.01,0.126,0.019 0.886,0.181,1.758,0.421,2.626,0.678 0.15,0.045,0.307,0.073,0.456,0.12 0.746,0.232,1.476,0.52,2.206,0.809 0.26,0.103,0.528,0.187,0.784,0.296 7.59,3.239,13.681,9.329,16.923,16.918 0.119,0.28,0.212,0.572,0.323,0.856 0.278,0.709,0.56,1.417,0.786,2.14 0.056,0.177,0.09,0.363,0.143,0.541 0.246,0.84,0.48,1.684,0.655,2.542 0.024,0.115,0.031,0.235,0.054,0.351 0.18,0.935,0.337,1.876,0.434,2.829 0.109,1.074,0.165,2.164,0.165,3.267 0,3.135-0.468,6.19-1.346,9.136-0.038,0.127-0.062,0.259-0.101,0.386-0.231,0.741-0.518,1.466-0.805,2.192-0.106,0.267-0.191,0.542-0.304,0.805-3.24,7.589-9.331,13.679-16.922,16.919-0.294,0.126-0.6,0.223-0.898,0.34-0.691,0.27-1.381,0.544-2.086,0.764-0.223,0.07-0.455,0.115-0.68,0.18-2.867,0.825-5.827,1.275-8.863,1.275-17.643,0-31.997-14.355-31.997-31.997S109.805,155.623,127.448,155.623z"/>
  <path d="M127.448,171.62c-0.001,0-0.002,0-0.004,0s-0.002,0-0.004,0c-8.822,0-16,7.177-16,15.999 0,8.822,7.177,15.999,16,15.999 0.001,0,0.002,0,0.004,0s0.002,0,0.004,0c8.822,0,16-7.177,16-15.999C143.448,178.797,136.271,171.62,127.448,171.62z"/>
  <path d="M351.444,203.623c8.822,0,16-7.178,16-16s-7.178-16-16-16-16,7.178-16,16S342.622,203.623,351.444,203.623z"/>
  <path d="M415.444,171.623c-8.822,0-16,7.178-16,16s7.178,16,16,16 16-7.178,16-16S424.267,171.623,415.444,171.623z"/>
  <path d="M383.444,203.623c-8.822,0-16,7.178-16,16s7.178,16,16,16 16-7.178,16-16S392.267,203.623,383.444,203.623z"/>
  <path d="M383.444,171.623c8.822,0,16-7.178,16-16s-7.178-16-16-16-16,7.178-16,16S374.622,171.623,383.444,171.623z"/>
  <path d="m277.56,164.849c0-13.233-10.766-24-24-24s-24,10.767-24,24c0,13.233,10.766,24,24,24s24-10.767,24-24zm-24,8c-4.411,0-8-3.589-8-8s3.589-8,8-8 8,3.589,8,8-3.588,8-8,8z"/>
  <path d="M319.446,219.632c-26.464,0.001-47.994,21.531-47.994,47.995 0,26.465,21.531,47.996,47.996,47.996 1.72,0,3.424-0.096,5.114-0.275 0.366-0.039,0.718-0.12,1.081-0.167 1.309-0.168,2.614-0.356,3.9-0.632 0.442-0.094,0.866-0.233,1.304-0.339 1.18-0.288,2.357-0.582,3.514-0.961 0.451-0.148,0.879-0.34,1.325-0.501 1.004-0.362,2.015-0.702,2.999-1.133 0.148-0.065,0.296-0.133,0.436-0.201 10.683-4.82,19.299-13.438,24.115-23.123 0.072-0.141,0.14-0.286,0.205-0.432 0.432-0.989,0.772-1.999,1.137-3.011 0.159-0.43,0.348-0.855,0.493-1.3 0.384-1.176,0.684-2.373,0.978-3.572 0.101-0.416,0.236-0.818,0.325-1.237 0.267-1.253,0.449-2.525,0.616-3.8 0.053-0.4,0.141-0.788,0.184-1.191 0.177-1.685,0.273-3.384,0.273-5.099 0-1.72-0.096-3.426-0.275-5.115-0.039-0.366-0.12-0.719-0.167-1.082-0.168-1.308-0.356-2.612-0.631-3.896-0.095-0.441-0.236-0.864-0.343-1.3-0.288-1.18-0.583-2.36-0.962-3.517-0.145-0.442-0.334-0.872-0.493-1.299-0.364-1.013-0.708-2.03-1.142-3.024-0.065-0.148-0.133-0.296-0.207-0.436-4.82-10.683-13.437-19.298-23.122-24.114-0.141-0.072-0.286-0.14-0.432-0.205-0.98-0.429-1.983-0.769-2.992-1.131-0.449-0.163-0.884-0.355-1.339-0.504-1.168-0.382-2.356-0.68-3.547-0.97-0.423-0.103-0.832-0.239-1.259-0.331-1.299-0.278-2.616-0.469-3.94-0.638-0.35-0.045-0.688-0.124-1.04-0.161-1.689-0.178-3.393-0.274-5.112-0.274zM319.448,235.631c1.099,0,2.189,0.055,3.268,0.166 1.945,0.198,3.83,0.594,5.657,1.126 0.202,0.059,0.41,0.097,0.611,0.16 0.738,0.231,1.451,0.514,2.165,0.796 0.27,0.107,0.546,0.193,0.814,0.307 7.594,3.24,13.687,9.335,16.928,16.929 0.108,0.254,0.19,0.515,0.291,0.771 0.289,0.729,0.577,1.46,0.813,2.214 0.056,0.178,0.09,0.362,0.142,0.541 0.246,0.837,0.478,1.679,0.655,2.542 0.024,0.115,0.031,0.235,0.054,0.351 0.18,0.931,0.336,1.872,0.433,2.829 0.109,1.074,0.165,2.163,0.165,3.267s-0.056,2.193-0.165,3.268c0,0,0,0,0,0-0.109,1.072-0.272,2.127-0.484,3.165 0,0.002,0,0.005,0,0.007-0.184,0.897-0.424,1.774-0.682,2.642-0.043,0.146-0.071,0.296-0.116,0.442-0.231,0.74-0.514,1.457-0.797,2.174-0.107,0.273-0.194,0.551-0.31,0.821-3.24,7.593-9.331,13.684-16.928,16.923-0.253,0.108-0.514,0.19-0.77,0.291-0.729,0.289-1.459,0.577-2.213,0.813-0.178,0.055-0.362,0.09-0.541,0.142-0.836,0.245-1.679,0.478-2.542,0.655-0.115,0.024-0.235,0.031-0.35,0.054-0.931,0.18-1.872,0.336-2.83,0.433-1.074,0.11-2.164,0.165-3.267,0.165-17.642-0.001-31.997-14.354-31.997-31.996 0-1.103,0.056-2.163,0.166-3.267C289.259,248.248,302.909,235.631,319.448,235.631z"/>
</svg>
