<?xml version="1.0" encoding="UTF-8" standalone="no"?>
<!-- Created with Inkscape (http://www.inkscape.org/) -->

<svg
   width="55.546989mm"
   height="92.306107mm"
   viewBox="0 0 55.546989 92.306107"
   version="1.1"
   id="svg1"
   xml:space="preserve"
   inkscape:version="1.4.3 (0d15f75042, 2025-12-25)"
   sodipodi:docname="path41.svg"
   xmlns:inkscape="http://www.inkscape.org/namespaces/inkscape"
   xmlns:sodipodi="http://sodipodi.sourceforge.net/DTD/sodipodi-0.dtd"
   xmlns="http://www.w3.org/2000/svg"
   xmlns:svg="http://www.w3.org/2000/svg"><sodipodi:namedview
     id="namedview1"
     pagecolor="#ffffff"
     bordercolor="#000000"
     borderopacity="0.25"
     inkscape:showpageshadow="2"
     inkscape:pageopacity="0.0"
     inkscape:pagecheckerboard="0"
     inkscape:deskcolor="#d1d1d1"
     inkscape:document-units="mm"
     inkscape:zoom="1"
     inkscape:cx="38.5"
     inkscape:cy="62.5"
     inkscape:window-width="1152"
     inkscape:window-height="991"
     inkscape:window-x="0"
     inkscape:window-y="0"
     inkscape:window-maximized="0"
     inkscape:current-layer="layer1"><inkscape:page
       x="0"
       y="0"
       width="55.546989"
       height="92.306107"
       id="page1"
       margin="0"
       bleed="0" /></sodipodi:namedview><defs
     id="defs1" /><g
     inkscape:label="Layer 1"
     inkscape:groupmode="layer"
     id="layer1"
     style="opacity:1"
     transform="translate(-91.766365,-97.51551)"><path
       id="path41"
       style="opacity:1;fill:none;stroke:#000000;stroke-width:0.264583;stroke-opacity:1"
       d="m 116.78357,97.67162 c -8.21228,2.81767 -15.80485,7.37974 -22.321636,13.10049 -0.5975,5.00003 -1.443046,9.65206 -1.711145,14.66925 -0.925638,13.86211 -1.700784,27.97226 1.083605,41.67849 0.523189,3.10884 2.137533,5.88228 3.791404,8.50621 3.360932,4.11906 6.245742,8.85441 11.152042,11.35282 5.20861,3.25367 12.15568,3.78099 17.47436,0.46241 6.0881,-3.31321 11.57047,-8.24862 14.66076,-14.5094 1.83656,-6.24392 4.10783,-12.37278 5.57719,-18.71437 1.76601,-8.98182 0.0405,-18.38842 -3.97293,-26.53176 l -5.17677,-23.79182 c -3.15802,-0.95401 -6.40395,-1.7267 -9.50796,-2.79208 -1.53462,-1.106391 -3.06923,-2.212783 -4.60384,-3.319176 -0.25356,1.265718 -1.60506,2.119097 -2.76265,2.313286 -1.82349,0.36802 -2.73305,-1.178396 -3.68243,-2.42435 z"
       sodipodi:nodetypes="ccccccccccccccc" /><path
       style="opacity:1;fill:none;stroke:#000000;stroke-width:0.264583;stroke-opacity:1"
       d="m 100.42377,106.05817 c 0.22123,2.83113 0.53416,5.69375 1.18014,8.4529 1.03765,3.22485 2.16254,6.38691 3.96224,9.27072 2.91657,5.54659 6.76477,10.78472 7.87731,17.09368 1.52078,5.63369 -0.0528,11.50962 -2.00084,16.82129 -1.74864,3.72995 -3.36986,7.50664 -4.56064,11.45851 -1.52909,3.97275 -1.0869,8.39411 -0.74333,12.54846 0.32956,2.16868 1.38707,4.35756 3.23339,5.61952"
       id="path42" /><path
       id="path53"
       style="opacity:1;fill:none;stroke:#000000;stroke-width:0.264583;stroke-opacity:1"
       d="m 118.38572,99.563436 2e-5,1.16e-4" /><path
       id="path52"
       style="opacity:1;fill:none;stroke:#000000;stroke-width:0.264583;stroke-opacity:1"
       d="m 118.39746,99.572876 c -0.0143,-0.02656 -0.0197,-0.04246 -0.0197,-0.04246 l 0.008,0.03302" /><path
       style="opacity:1;fill:none;stroke:#000000;stroke-width:0.264583;stroke-opacity:1"
       d="m 121.39286,112.08214 c 0,0 3.96621,4.74937 2.47335,10.05294"
       id="path46"
       sodipodi:nodetypes="cc" /><path
       d="m 124.03726,98.234329 -0.25993,0.05684 c 0.98299,4.589237 2.21386,9.182077 3.44992,13.788307 0.16024,0.23029 0.31792,0.47508 0.47129,0.73484 -1.30751,-4.87642 -2.6231,-9.73259 -3.66128,-14.579474 z m -5.4963,1.292945 -0.25787,0.06253 6.19394,25.709028 -5.2e-4,-0.004 c 0,0 -0.07,-0.4994 -0.17363,-0.7891 l -0.0196,-0.0486 0.0233,-0.0486 c 0.0509,-0.10839 0.0999,-0.21923 0.14728,-0.33228 l -3.18999,-13.24518 c -0.0649,-0.0421 -0.13081,-0.0836 -0.1974,-0.12403 l -0.0486,-0.0295 -0.32815,-1.51361 -0.0879,-0.35915 0.17415,0.003 z m 11.07064,20.570836 c 0.004,0.17013 0.006,0.34276 0.006,0.51728 0,0.18204 -0.004,0.3628 -0.0119,0.54157 0.33738,1.34801 0.66329,2.69241 0.97255,4.03231 -0.0162,0.0249 -0.0646,0.10959 -0.23409,0.25994 -0.19226,0.17056 -0.49637,0.37903 -0.94155,0.52554 -0.23635,0.0778 -0.51317,0.13808 -0.83509,0.16485 -0.0226,0.0665 -0.0384,0.11395 -0.0455,0.13953 l -0.0217,0.0822 -0.0837,0.0119 c -0.12211,0.0199 -0.25037,0.0342 -0.38292,0.0429 0.58504,0.0173 1.06448,-0.064 1.45108,-0.1912 0.48229,-0.15872 0.81733,-0.38691 1.03301,-0.57826 0.21568,-0.19134 0.31832,-0.35347 0.31832,-0.35347 l 0.0274,-0.0465 -0.0119,-0.0527 c -0.38996,-1.69229 -0.80694,-3.39179 -1.23972,-5.09581 z m -5.12217,5.25188 0.009,0.0367 0.0387,0.0294 c 0.0317,0.0235 0.0634,0.0463 0.0956,0.0703 l 0.0119,0.008 0.0119,0.006 c 0.0111,0.005 0.0225,0.0104 0.0336,0.0155 -0.059,-0.0447 -0.1161,-0.0911 -0.17054,-0.13901 z"
       style="baseline-shift:baseline;display:inline;overflow:visible;opacity:1;vector-effect:none;enable-background:accumulate;stop-color:#000000;stop-opacity:1"
       id="path18" /><path
       d="m 120.60181,108.80474 0.0879,0.35915 0.32815,1.51361 0.0486,0.0295 c 2.32647,1.41412 3.59564,3.85211 4.05453,6.43734 0.4589,2.58523 0.10065,5.31402 -0.81442,7.26415 l -0.0233,0.0486 0.0196,0.0486 c 0.10361,0.2897 0.17363,0.7891 0.17363,0.7891 l 0.006,0.0491 0.0367,0.0331 c 0.97137,0.85539 2.71338,1.1892 3.89692,0.99632 l 0.0837,-0.0119 0.0217,-0.0822 c 0.019,-0.0689 0.10136,-0.29738 0.20878,-0.62477 0.10742,-0.32739 0.24165,-0.76236 0.3731,-1.27331 0.26288,-1.0219 0.51366,-2.35186 0.51366,-3.76566 0,-0.24654 -0.003,-0.48917 -0.0119,-0.72657 -0.10721,-3.01945 -0.87828,-5.28502 -1.834,-6.94945 -1.74967,-3.04712 -4.12688,-4.08398 -4.12688,-4.08398 l -0.0233,-0.01 z m 0.33383,0.26562 2.6231,0.0351 c 0.0297,0.013 2.28561,1.00122 3.98632,3.96307 0.93508,1.62849 1.69461,3.85024 1.80041,6.83007 0.008,0.23404 0.0119,0.47304 0.0119,0.71675 1e-5,1.38287 -0.24664,2.69326 -0.50591,3.70107 -0.12963,0.5039 -0.26273,0.93193 -0.36897,1.25574 -0.09,0.27419 -0.14325,0.42519 -0.17983,0.54105 -1.08567,0.15432 -2.71701,-0.17437 -3.58376,-0.91984 -0.009,-0.0667 -0.0621,-0.42053 -0.16227,-0.72864 0.92753,-2.00669 1.28706,-4.7459 0.82217,-7.36493 -0.46471,-2.61799 -1.75932,-5.10805 -4.12688,-6.57427 l -0.3085,-1.42007 z"
       style="baseline-shift:baseline;display:inline;overflow:visible;vector-effect:none;enable-background:accumulate;stop-color:#000000;stop-opacity:1"
       id="path16" /><path
       d="m 120.93564,109.07036 0.008,0.0351 0.3085,1.42007 c 2.36756,1.46622 3.66217,3.95628 4.12688,6.57427 0.46489,2.61903 0.10536,5.35824 -0.82217,7.36493 0.10021,0.30811 0.15327,0.66194 0.16227,0.72864 0.86675,0.74547 2.49809,1.07416 3.58376,0.91984 0.0366,-0.11586 0.0898,-0.26686 0.17983,-0.54105 0.10624,-0.32381 0.23934,-0.75184 0.36897,-1.25574 0.25927,-1.00781 0.50592,-2.3182 0.50591,-3.70107 0,-0.24371 -0.004,-0.48271 -0.0119,-0.71675 -0.1058,-2.97983 -0.86533,-5.20158 -1.80041,-6.83007 -1.70071,-2.96185 -3.95662,-3.95007 -3.98632,-3.96307 z"
       style="opacity:1;baseline-shift:baseline;display:inline;overflow:visible;vector-effect:none;fill:none;enable-background:accumulate;stop-color:#000000;stop-opacity:1"
       id="path17"
       transform="translate(-1.1875e-6)"
       inkscape:label="ScrollWheel" /><path
       style="opacity:1;fill:none;stroke:#000000;stroke-width:0.264583;stroke-opacity:1"
       d="m 128.1732,127.95097 c 0,0 -0.44446,0.11112 -0.0556,2.38901 0.3889,2.2779 0.77781,5.50028 0.77781,5.50028 l 0.88894,-0.38891 c 0,0 1.44452,0.11112 1.55563,0.33335 0.11112,0.22224 0.22224,-8.83378 -3.16683,-7.83373 z"
       id="path43"
       inkscape:label="Button 1" /><path
       style="opacity:1;fill:none;stroke:#000000;stroke-width:0.264583;stroke-opacity:1"
       d="m 128.83991,136.28473 2.38901,-0.16668 c 0,0 1.17991,6.55589 0.29098,7.6115 -0.0314,0.0372 -1.69538,0.8246 -2.01329,-0.50002 -0.33336,-1.38896 -0.6667,-6.9448 -0.6667,-6.9448 z"
       id="path44"
       sodipodi:nodetypes="ccssc"
       inkscape:label="Button 2" /><path
       style="display:inline;opacity:1;fill:none;stroke:#000000;stroke-width:0.264583;stroke-opacity:1"
       d="m 103.36301,153.12903 5.28142,-1.26017 c 0,0 1.80565,-0.47225 2.0001,0.91671 0.19446,1.38896 -1.11116,4.11132 -1.11116,4.11132 l -6.13921,1.3334 -0.33334,-1.44452 z"
       id="path57"
       sodipodi:nodetypes="ccscccc"
       inkscape:label="B12-BG" /><path
       id="path59"
       style="opacity:1;fill:none;stroke:#000000;stroke-width:0.264583;stroke-opacity:1"
       d="m 107.37353,155.751 2.16678,1.12506 m -2.35329,-4.66161 c 0.42779,-0.10022 0.73809,0.37225 0.79983,0.82419 0.10603,0.65267 -0.21427,1.26156 -0.38301,1.87431 -0.0794,0.27093 -0.18254,0.5452 -0.23725,0.81722 -1.72231,0.46298 -2.61124,0.64818 -4.33355,1.11116"
       inkscape:label="B12-Top"
       sodipodi:nodetypes="ccccccc" /><path
       style="display:inline;opacity:1;fill:none;stroke:#000000;stroke-width:0.264583;stroke-opacity:1"
       d="m 102.93662,146.36432 5.73321,-1.20124 c 0,0 2.05193,-0.70099 2.56974,0.60242 0.52839,1.33004 -0.22723,4.26847 -0.22723,4.26847 l -7.54199,1.45939 c -0.78618,-0.31687 -0.84277,-0.99464 -0.53373,-5.12904 z"
       id="path57-2"
       sodipodi:nodetypes="ccsccc"
       inkscape:label="B9-BG" /><path
       style="display:inline;opacity:1;fill:none;stroke:#000000;stroke-width:0.264583;stroke-opacity:1"
       d="m 102.39823,139.95093 5.28142,-1.26017 c 0,0 2.03885,-0.54735 2.43224,0.79885 1.11768,3.82468 -0.0112,3.81668 -0.0112,3.81668 l -7.39635,1.49054 c -0.14718,-1.65424 -0.35628,-3.16275 -0.30611,-4.8459 z"
       id="path57-2-9"
       sodipodi:nodetypes="ccsccc"
       inkscape:label="B6-BG" /><path
       style="display:inline;opacity:1;fill:none;stroke:#000000;stroke-width:0.249704;stroke-opacity:1"
       d="m 101.10014,132.60871 4.42102,-1.41587 c 0,0 1.49484,-0.34061 1.99181,0.98888 0.50467,1.35009 2.62007,3.78364 0.57618,4.83855 l -5.8813,1.25447 c -0.50457,-1.84297 -0.73178,-3.7942 -1.10771,-5.66603 z"
       id="path57-2-6"
       sodipodi:nodetypes="ccsccc"
       inkscape:label="B3-BG" /><path
       style="opacity:1;fill:none;stroke:#000000;stroke-width:0.264583;stroke-opacity:1"
       d="m 107.38645,145.42539 c 0,0 0.88808,-0.1623 0.94391,1.73889 0.0536,1.82643 -0.17679,2.20001 -0.17679,2.20001 l -5.34286,1.06071"
       id="path73"
       inkscape:label="B9-Top"
       sodipodi:nodetypes="cscc" /><path
       style="opacity:1;fill:none;stroke:#000000;stroke-width:0.264583;stroke-opacity:1"
       d="m 105.75596,139.15044 c 0.51177,-0.13332 1.00376,-0.0189 1.23052,0.40329 0.33051,0.56305 0.58536,1.17808 0.70564,1.82159 0.0603,0.408 0.10146,0.90548 -0.22711,1.2163 -0.37189,0.35901 -0.90682,0.42314 -1.37577,0.58744 -1.13996,0.34475 -2.24554,0.49815 -3.46345,0.68819"
       id="path74"
       sodipodi:nodetypes="cccccc"
       inkscape:label="B6-Top" /><path
       style="opacity:1;fill:none;stroke:#000000;stroke-width:0.264583;stroke-opacity:1"
       d="m 102.51912,132.17341 c 0.61604,-0.23349 1.32839,-0.42197 1.94227,-0.11066 0.77093,0.40229 2.11832,3.54886 1.28368,4.37942 -0.5756,0.48693 -1.35314,0.57625 -2.06276,0.73401 -0.57189,0.11984 -1.1431,0.24381 -1.71874,0.34469"
       id="path75"
       sodipodi:nodetypes="ccccc"
       inkscape:label="B3-Top" /><path
       style="opacity:1;fill:none;stroke:#000000;stroke-width:0.262816;stroke-opacity:1"
       d="m 96.819005,133.73149 4.263745,-1.12379 1.21821,5.65769 -5.383656,1.41575 c 0,0 -1.187627,-1.20016 -1.120057,-4.71744 0.01701,-0.88531 1.021758,-1.23221 1.021758,-1.23221 z"
       id="path76"
       sodipodi:nodetypes="ccccsc"
       inkscape:label="B2-BG" /><path
       style="opacity:1;fill:none;stroke:#000000;stroke-width:0.27517;stroke-opacity:1"
       d="m 97.644296,133.51636 2.433514,-0.63355 1.13743,4.38389 c 0,0 -0.098,0.4469 -0.60793,0.5533 -0.50988,0.10639 -4.114978,1.00825 -4.114978,1.00825"
       id="path77"
       sodipodi:nodetypes="cccsc" /><path
       style="opacity:1;fill:none;stroke:#000000;stroke-width:0.264583;stroke-opacity:1"
       d="m 96.991058,141.17387 4.853512,-1.17248 c 0,0 0.34075,-0.0953 0.53565,1.70028 0.19449,1.79176 0.2639,2.49319 0.2639,2.49319 0,0 -0.22223,0.70758 -0.84726,0.84648 -0.62503,0.1389 -4.513421,1.23338 -4.513421,1.23338 l -0.445165,-1.36455 c 0,0 -0.152789,-2.33345 0.152784,-3.7363 z"
       id="path78"
       sodipodi:nodetypes="ccscsccc" /><path
       style="opacity:1;fill:none;stroke:#000000;stroke-width:0.264583;stroke-opacity:1"
       d="m 96.838274,144.91017 4.166876,-0.90282 c 0,0 0.72226,-3.16683 -0.16667,-3.73631"
       id="path79"
       inkscape:label="B5-Top" /><path
       style="opacity:1;fill:none;stroke:#000000;stroke-width:0.264583;stroke-opacity:1"
       d="m 97.116065,148.35479 c 0,0 -0.125007,-0.79171 0.708369,-0.90283 0.833377,-0.11111 4.389116,-0.95838 4.389116,-0.95838 0,0 0.7216,0.0556 0.69382,0.77782 -0.0278,0.72226 -0.0724,2.35858 -0.0724,2.35858 l 0.0443,1.15284 c 0,0 0.33434,0.78046 -1.17963,1.07215 -1.51396,0.29168 -3.847417,0.8056 -3.847417,0.8056 l -0.902825,-0.93061 z"
       id="path80"
       sodipodi:nodetypes="cscsccsccc" /><path
       style="opacity:1;fill:none;stroke:#000000;stroke-width:0.264583;stroke-opacity:1"
       d="m 97.893882,154.24398 4.389108,-1.02783 c 0,0 1.09728,-0.19446 1.01395,0.75004 -0.0833,0.94449 -0.22224,2.4029 -0.22224,2.4029 l 0.27779,1.81953 -4.833575,1.26396 -1.069501,-1.36118 0.111117,-2.90293 c 0,0 -0.02778,-0.62503 0.333351,-0.94449 z"
       id="path81"
       inkscape:label="B11-BG" /><path
       style="opacity:1;fill:none;stroke:#000000;stroke-width:0.264583;stroke-opacity:1"
       d="m 98.185564,158.99422 c 0,0 0.180565,0.51392 -0.583364,0.72226 -0.763926,0.20834 -2.639023,0.83338 -2.639023,0.83338 l -1.291733,-1.02783 -0.350713,-3.17377 c 0,0 0.0764,-0.60421 1.086861,-0.97922 1.405203,-0.52151 2.361232,-0.84727 2.361232,-0.84727 0,0 1.028406,-0.34054 0.872662,0.10367 -0.13518,0.38556 -0.20596,3.45207 -0.20596,3.45207 z"
       id="path82"
       sodipodi:nodetypes="cscccscscc"
       inkscape:label="B10-BG" /><path
       style="opacity:1;fill:none;stroke:#000000;stroke-width:0.264583;stroke-opacity:1"
       d="m 97.803601,152.67446 -3.687688,1.20839 -1.194507,-1.05561 c 0,0 -0.208711,-1.76456 -0.229179,-2.12511 -0.09028,-1.59036 0.645865,-1.71536 0.645865,-1.71536 l 3.298779,-1.11118 c 0,0 0.541695,-0.29862 0.465301,0.72227 -0.08324,1.1123 -0.166674,2.99321 -0.166674,2.99321 l 0.01389,0.18056 z"
       id="path83"
       sodipodi:nodetypes="cccsccsccc"
       inkscape:label="B7-BG" /><path
       style="opacity:1;fill:none;stroke:#000000;stroke-width:0.264583;stroke-opacity:1"
       d="m 97.143844,145.82688 c 0,0 0.152786,0.45141 -1.340347,0.88199 -1.493132,0.43058 -2.097329,0.57642 -2.097329,0.57642 l -1.201449,-1.18756 -0.131953,-2.97238 c 0,0 -0.166674,-0.59725 1.166728,-0.97921 1.333399,-0.38197 3.41684,-0.96533 3.41684,-0.96533 0,0 -0.11806,0.43753 -0.125005,0.84032 -0.007,0.4028 -0.04861,1.25007 -0.04861,1.25007 v 1.18061 z"
       id="path84"
       inkscape:label="B4-BG" /><path
       style="display:inline;opacity:1;fill:none;stroke:#000000;stroke-width:0.264583;stroke-opacity:1"
       d="m 96.397319,133.89553 -2.740178,0.95268 c 0,0 -1.699107,0.65804 -1.708928,1.03125 -0.0098,0.37322 0.363392,3.99732 0.363392,3.99732 l 1.316072,0.79554 3.260714,-0.97232 c 0,0 -0.55,-0.87411 -0.716963,-1.43393 -0.166965,-0.55982 -0.275002,-1.47322 -0.275002,-1.47322 0,0 -0.412498,-2.35714 0.500893,-2.89732 z"
       id="path88"
       sodipodi:nodetypes="ccscccscc" /><path
       style="opacity:1;fill:none;stroke:#000000;stroke-width:0.264583;stroke-opacity:1"
       d="m 92.338042,139.75713 c 0,0 -0.06061,0.3158 1.370017,-0.004 1.430629,-0.31946 1.916763,-0.48613 1.916763,-0.48613 0,0 0.675125,-0.20867 0.6155,-0.52543 -0.08322,-0.4421 -0.485437,-2.34606 -0.485437,-2.34606 l -0.291682,-2.11122"
       id="path89"
       sodipodi:nodetypes="cscscc"
       inkscape:label="B1-BG" /><path
       style="opacity:1;fill:none;stroke:#000000;stroke-width:0.264583;stroke-opacity:1"
       d="m 92.491961,146.09286 c 0,0 0.11693,0.44434 0.958829,0.22217 0.841899,-0.22217 2.50231,-0.74835 2.50231,-0.74835 0,0 0.48822,-0.0444 0.320555,-1.35924 -0.169722,-1.33099 -0.4232,-2.11501 -0.4232,-2.11501 0,0 -0.06849,-0.50682 -1.090044,-0.30261"
       id="path90"
       sodipodi:nodetypes="cscscc" /><path
       style="opacity:1;fill:none;stroke:#000000;stroke-width:0.264583;stroke-opacity:1"
       d="m 94.947499,148.45063 c 0,0 1.84039,-0.78006 1.807317,1.03895 -0.03307,1.81901 0.553972,2.53008 -1.099673,2.86081 -1.653646,0.33073 -2.736785,0.47956 -2.736785,0.47956"
       id="path91"
       sodipodi:nodetypes="cssc" /><path
       style="opacity:1;fill:none;stroke:#000000;stroke-width:0.264583;stroke-opacity:1"
       d="m 96.502674,154.65217 c 0,0 0.444336,-0.3391 0.397563,1.28623 -0.04677,1.62534 -0.128625,2.30353 -0.128625,2.30353 0,0 0.152011,0.61974 -0.795126,0.81852 -0.947136,0.19878 -2.26845,0.40925 -2.26845,0.40925"
       id="path92" /><path
       style="opacity:1;fill:none;stroke:#000000;stroke-width:0.264583;stroke-opacity:1"
       d="m 101.73229,153.35084 c 0,0 0.90951,-0.27285 0.61185,0.96739 -0.29766,1.24023 -0.64492,2.74505 -0.64492,2.74505 l -4.216799,0.95911"
       id="path93"
       sodipodi:nodetypes="cscc" /><path
       style="opacity:1;fill:none;stroke:#000000;stroke-width:0.264583;stroke-opacity:1"
       d="m 100.46725,146.89336 c 0,0 1.44694,-0.36381 1.29811,1.7694 -0.14539,2.08383 -0.41341,2.14974 -0.41341,2.14974 l -4.38216,0.85989"
       id="path94"
       sodipodi:nodetypes="cscc"
       inkscape:label="B7-TOP" /></g></svg>
