<?xml version="1.0" encoding="UTF-8" standalone="no"?>
<!-- Created with Inkscape (http://www.inkscape.org/) -->

<svg
   width="117.67608mm"
   height="82.981033mm"
   viewBox="0 0 117.67607 82.981035"
   version="1.1"
   id="svg1"
   xml:space="preserve"
   sodipodi:docname="xbox.svg"
   inkscape:version="1.4.3 (0d15f75042, 2025-12-25)"
   xmlns:inkscape="http://www.inkscape.org/namespaces/inkscape"
   xmlns:sodipodi="http://sodipodi.sourceforge.net/DTD/sodipodi-0.dtd"
   xmlns="http://www.w3.org/2000/svg"
   xmlns:svg="http://www.w3.org/2000/svg"><sodipodi:namedview
     id="namedview1"
     pagecolor="#ffffff"
     bordercolor="#000000"
     borderopacity="0.25"
     inkscape:showpageshadow="2"
     inkscape:pageopacity="0.0"
     inkscape:pagecheckerboard="0"
     inkscape:deskcolor="#d1d1d1"
     inkscape:document-units="mm"
     inkscape:zoom="9.9032527"
     inkscape:cx="318.63268"
     inkscape:cy="108.39873"
     inkscape:window-width="1991"
     inkscape:window-height="1188"
     inkscape:window-x="0"
     inkscape:window-y="0"
     inkscape:window-maximized="0"
     inkscape:current-layer="layer1"
     showguides="true"><inkscape:page
       x="0"
       y="0"
       width="117.67607"
       height="82.981041"
       id="page206"
       margin="88.556282 41.255135 9.2468414 118.25286"
       bleed="0" /></sodipodi:namedview><defs
     id="defs1"><rect
       x="485.0018"
       y="410.49161"
       width="23.770117"
       height="26.055704"
       id="rect32" /><inkscape:path-effect
       effect="fillet_chamfer"
       id="path-effect20"
       is_visible="true"
       lpeversion="1"
       nodesatellites_param="F,0,0,1,0,0.65709726,0,1 @ F,0,0,1,0,0.91978508,0,1 @ F,0,0,1,0,0.9161345,0,1 @ F,0,0,1,0,0.60948915,0,1"
       radius="0"
       unit="px"
       method="auto"
       mode="F"
       chamfer_steps="1"
       flexible="false"
       use_knot_distance="true"
       apply_no_radius="true"
       apply_with_radius="true"
       only_selected="false"
       hide_knots="false" /><inkscape:path-effect
       effect="fillet_chamfer"
       id="path-effect18"
       is_visible="true"
       lpeversion="1"
       nodesatellites_param="F,0,0,1,0,0.65709726,0,1 @ F,0,0,1,0,0.91978508,0,1 @ F,0,0,1,0,0.9161345,0,1 @ F,0,0,1,0,0.60948915,0,1"
       radius="0"
       unit="px"
       method="auto"
       mode="F"
       chamfer_steps="1"
       flexible="false"
       use_knot_distance="true"
       apply_no_radius="true"
       apply_with_radius="true"
       only_selected="false"
       hide_knots="false" /><inkscape:path-effect
       effect="fillet_chamfer"
       id="path-effect16"
       is_visible="true"
       lpeversion="1"
       nodesatellites_param="F,0,0,1,0,0.65709726,0,1 @ F,0,0,1,0,0.91978508,0,1 @ F,0,0,1,0,0.9161345,0,1 @ F,0,0,1,0,0.60948915,0,1"
       radius="0"
       unit="px"
       method="auto"
       mode="F"
       chamfer_steps="1"
       flexible="false"
       use_knot_distance="true"
       apply_no_radius="true"
       apply_with_radius="true"
       only_selected="false"
       hide_knots="false" /><inkscape:path-effect
       effect="fillet_chamfer"
       id="path-effect13"
       is_visible="true"
       lpeversion="1"
       nodesatellites_param="F,0,0,1,0,0.65709726,0,1 @ F,0,0,1,0,0.91978508,0,1 @ F,0,0,1,0,0.9161345,0,1 @ F,0,0,1,0,0.60948915,0,1"
       radius="0"
       unit="px"
       method="auto"
       mode="F"
       chamfer_steps="1"
       flexible="false"
       use_knot_distance="true"
       apply_no_radius="true"
       apply_with_radius="true"
       only_selected="false"
       hide_knots="false" /><inkscape:path-effect
       effect="fillet_chamfer"
       id="path-effect12"
       is_visible="true"
       lpeversion="1"
       nodesatellites_param="F,0,0,1,0,0,0,1 @ F,0,0,1,0,0,0,1 @ F,0,0,1,0,0,0,1 @ F,0,0,1,0,0,0,1"
       radius="0"
       unit="px"
       method="auto"
       mode="F"
       chamfer_steps="1"
       flexible="false"
       use_knot_distance="true"
       apply_no_radius="true"
       apply_with_radius="true"
       only_selected="false"
       hide_knots="false" /><filter
       inkscape:label="Blueprint"
       inkscape:menu="Image Paint and Draw"
       inkscape:menu-tooltip="Detect color edges and retrace them in blue"
       style="color-interpolation-filters:sRGB"
       id="filter1"
       x="0"
       y="0"
       width="1"
       height="1"><feConvolveMatrix
         order="3 3"
         kernelMatrix="1 1 1 1 -8 1 1 1 1"
         in="SourceGraphic"
         divisor="1"
         targetX="1"
         targetY="1"
         preserveAlpha="true"
         result="result0"
         bias="0"
         id="feConvolveMatrix1" /><feColorMatrix
         result="result3"
         values="-0.15 -0.3 -0.05 0 1 -0.15 -0.3 -0.05 0 1 0 0 0 0 1 0 0 0 1 0"
         id="feColorMatrix1" /></filter><rect
       x="485.0018"
       y="410.49161"
       width="23.770117"
       height="26.055704"
       id="rect32-4" /><rect
       x="485.0018"
       y="410.49161"
       width="23.770117"
       height="26.055704"
       id="rect33" /><rect
       x="485.0018"
       y="410.49161"
       width="23.770117"
       height="26.055704"
       id="rect34" /></defs><g
     inkscape:label="Layer 1"
     inkscape:groupmode="layer"
     id="layer1"
     transform="translate(-107.18012,-81.201255)"><path
       d="m 140.68669,82.798064 c -5.38782,0.260835 -10.79675,3.54242 -10.79675,3.54242 l -0.0155,0.0098 -3.08742,3.466364 0.59544,-0.354663 2.65992,-2.888457 c 0.0214,-0.01293 5.37763,-3.24295 10.6562,-3.498495 2.23238,-0.108073 4.39928,0.387953 6.19066,1.798138 l 0.58852,0.01937 c -1.91613,-1.702406 -4.36612,-2.211846 -6.79106,-2.09445 z"
       style="baseline-shift:baseline;display:inline;overflow:visible;vector-effect:none;fill:#ffffff;stroke-width:1.014;enable-background:accumulate;stop-color:#000000"
       id="path181"
       sodipodi:nodetypes="scccccsccss"
       inkscape:label="OUTLINE_LB" /><path
       style="baseline-shift:baseline;display:inline;overflow:visible;vector-effect:none;stroke-width:1.014;enable-background:accumulate;stop-color:#000000"
       d="m 140.69242,82.936483 c 2.42659,-0.117475 4.84173,0.386259 6.73344,2.099828 -5.22555,-0.08581 -12.38235,1.427009 -20.52933,4.758902 l 3.06321,-3.335462 c 0,0 5.3942,-3.264822 10.73268,-3.523268 z"
       id="path177"
       inkscape:label="BUTTON_LB" /><path
       d="m 191.91721,82.789214 c 5.38782,0.260835 10.79675,3.542419 10.79675,3.542419 l 0.0155,0.0098 3.08742,3.466364 -0.59544,-0.354664 -2.65992,-2.888457 c -0.0214,-0.01293 -5.37763,-3.242949 -10.6562,-3.498495 -2.23238,-0.108072 -4.39928,0.387953 -6.19066,1.798138 l -0.58852,0.01937 c 1.91613,-1.702406 4.36612,-2.211845 6.79106,-2.094449 z"
       style="baseline-shift:baseline;display:inline;overflow:visible;vector-effect:none;fill:#ffffff;stroke-width:1.014;enable-background:accumulate;stop-color:#000000"
       id="path185"
       sodipodi:nodetypes="scccccsccss"
       inkscape:label="OUTLINE_RB" /><path
       style="baseline-shift:baseline;display:inline;overflow:visible;vector-effect:none;stroke-width:1.014;enable-background:accumulate;stop-color:#000000"
       d="m 191.91148,82.927632 c -2.42659,-0.117475 -4.84173,0.38626 -6.73344,2.099828 5.22555,-0.08581 12.38235,1.427009 20.52933,4.758902 L 202.64416,86.4509 c 0,0 -5.3942,-3.264822 -10.73268,-3.523268 z"
       id="path186"
       inkscape:label="BUTTON_RB" /><path
       id="path60"
       style="display:inline;opacity:1;fill:#000000;stroke:#ffffff;stroke-width:0.3;stroke-dasharray:none;stroke-opacity:0.54129463"
       d="m 127.03052,89.684042 c -10.6745,9.795599 -11.5701,32.769708 -18.13275,47.809998 -2.36761,8.47911 -0.59352,22.53296 9.09816,26.3648 8.49096,1.51517 9.87398,-9.15329 16.20056,-14.06167 7.31197,-6.37181 8.74783,-8.02512 17.37516,-8.64805 h 27.94249 c 10.12712,0.54249 11.27173,1.99255 19.02726,8.75088 6.32657,4.90838 7.7096,15.57685 16.20056,14.06168 9.69168,-3.83184 11.46577,-17.88569 9.09815,-26.3648 -6.56264,-15.04029 -7.45825,-38.014919 -18.13274,-47.810518 -8.50003,-3.438283 -15.27158,-4.840592 -17.95738,-4.830742 l -40.07836,0.0099 c -7.17552,-0.245257 -14.03602,2.144805 -20.64111,4.718522 z"
       inkscape:label="BG_Controller"
       sodipodi:nodetypes="ccccccccccccc" /><text
       xml:space="preserve"
       x="197.47383"
       y="112.63293"
       id="text32-4"
       style="font-size:7.2px;font-family:'DejaVu Sans', sans-serif;dominant-baseline:middle;text-anchor:middle;display:inline;fill:#ffffff;stroke:none"
       inkscape:label="TEXT_A">A</text><path
       id="path3-7-2"
       style="fill:none;stroke:none;stroke-width:0.269175"
       inkscape:label="BUTTON_A"
       d="m 201.56345,112.13322 a 4.0913735,4.1996847 0 0 1 -4.09138,4.19968 4.0913735,4.1996847 0 0 1 -4.09137,-4.19968 4.0913735,4.1996847 0 0 1 4.09137,-4.19969 4.0913735,4.1996847 0 0 1 4.09138,4.19969 z" /><path
       style="baseline-shift:baseline;display:inline;overflow:visible;vector-effect:none;fill:#ffffff;stroke-width:0.949393;enable-background:accumulate;stop-color:#000000"
       d="m 197.47299,107.79142 c -2.3386,0 -4.23517,1.94648 -4.23517,4.34087 0,2.3944 1.89657,4.34273 4.23517,4.34273 2.33861,0 4.23333,-1.94833 4.23333,-4.34273 0,-2.39439 -1.89472,-4.34087 -4.23333,-4.34087 z m 0,0.2837 c 2.1806,0 3.94777,1.81273 3.94777,4.05717 0,2.24444 -1.76717,4.05717 -3.94777,4.05717 -2.1806,0 -3.94961,-1.81273 -3.94961,-4.05717 0,-2.24444 1.76901,-4.05717 3.94961,-4.05717 z"
       id="path187"
       inkscape:label="OUTLINE_A" /><text
       xml:space="preserve"
       x="204.87927"
       y="105.42317"
       id="text33"
       style="font-size:7.2px;font-family:'DejaVu Sans', sans-serif;dominant-baseline:middle;text-anchor:middle;display:inline;fill:#ffffff;stroke:none"
       inkscape:label="TEXT_B">B</text><path
       id="path3-7-3"
       style="fill:none;stroke:none;stroke-width:0.269175"
       inkscape:label="BUTTON_B"
       d="m 208.82784,104.76752 a 4.0913735,4.1996847 0 0 1 -4.09137,4.19968 4.0913735,4.1996847 0 0 1 -4.09138,-4.19968 4.0913735,4.1996847 0 0 1 4.09138,-4.19969 4.0913735,4.1996847 0 0 1 4.09137,4.19969 z" /><path
       style="baseline-shift:baseline;display:inline;overflow:visible;vector-effect:none;fill:#ffffff;stroke-width:0.949393;enable-background:accumulate;stop-color:#000000"
       d="m 204.73739,100.42571 c -2.3386,0 -4.23517,1.94648 -4.23517,4.34087 0,2.3944 1.89657,4.34273 4.23517,4.34273 2.33861,0 4.23333,-1.94833 4.23333,-4.34273 0,-2.39439 -1.89472,-4.34087 -4.23333,-4.34087 z m 0,0.2837 c 2.1806,0 3.94777,1.81273 3.94777,4.05717 0,2.24444 -1.76717,4.05717 -3.94777,4.05717 -2.1806,0 -3.94961,-1.81273 -3.94961,-4.05717 0,-2.24444 1.76901,-4.05717 3.94961,-4.05717 z"
       id="path188"
       inkscape:label="OUTLINE_B" /><text
       xml:space="preserve"
       x="197.47208"
       y="98.04995"
       id="text34"
       style="font-size:7.2px;font-family:'DejaVu Sans', sans-serif;dominant-baseline:middle;text-anchor:middle;display:inline;fill:#ffffff;stroke:none"
       inkscape:label="TEXT_Y">Y</text><path
       id="path3-7"
       style="fill:none;stroke:none;stroke-width:0.269175"
       inkscape:label="BUTTON_Y"
       d="m 201.56345,97.394281 a 4.0913735,4.1996847 0 0 1 -4.09138,4.199689 4.0913735,4.1996847 0 0 1 -4.09137,-4.199689 4.0913735,4.1996847 0 0 1 4.09137,-4.199679 4.0913735,4.1996847 0 0 1 4.09138,4.199679 z" /><path
       style="baseline-shift:baseline;display:inline;overflow:visible;vector-effect:none;fill:#ffffff;stroke-width:0.949393;enable-background:accumulate;stop-color:#000000"
       d="m 197.46471,93.060015 c -2.3386,0 -4.23517,1.946476 -4.23517,4.340866 0,2.3944 1.89657,4.342729 4.23517,4.342729 2.33861,0 4.23333,-1.948329 4.23333,-4.342729 0,-2.39439 -1.89472,-4.340866 -4.23333,-4.340866 z m 0,0.2837 c 2.1806,0 3.94777,1.812726 3.94777,4.057166 0,2.24444 -1.76717,4.057169 -3.94777,4.057169 -2.1806,0 -3.94961,-1.812729 -3.94961,-4.057169 0,-2.24444 1.76901,-4.057166 3.94961,-4.057166 z"
       id="path189"
       inkscape:label="OUTLINE_Y" /><text
       xml:space="preserve"
       x="190.22409"
       y="105.42412"
       id="text32"
       style="font-size:7.2px;font-family:'DejaVu Sans', sans-serif;dominant-baseline:middle;text-anchor:middle;display:inline;fill:#ffffff;stroke:none"
       inkscape:label="TEXT_X">X</text><path
       style="baseline-shift:baseline;display:inline;overflow:visible;vector-effect:none;fill:none;stroke-width:0.949393;enable-background:accumulate;stop-color:#000000"
       d="m 194.31019,104.76845 a 4.0913735,4.1996847 0 0 1 -4.09137,4.19969 4.0913735,4.1996847 0 0 1 -4.09138,-4.19969 4.0913735,4.1996847 0 0 1 4.09138,-4.19968 4.0913735,4.1996847 0 0 1 4.09137,4.19968 z"
       id="path48"
       inkscape:label="BUTTON_X" /><path
       style="baseline-shift:baseline;display:inline;overflow:visible;vector-effect:none;fill:#ffffff;stroke-width:0.949393;enable-background:accumulate;stop-color:#000000"
       d="m 190.21974,100.42665 c -2.3386,0 -4.23517,1.94648 -4.23517,4.34087 0,2.3944 1.89657,4.34273 4.23517,4.34273 2.33861,0 4.23333,-1.94833 4.23333,-4.34273 0,-2.39439 -1.89472,-4.34087 -4.23333,-4.34087 z m 0,0.2837 c 2.1806,0 3.94777,1.81273 3.94777,4.05717 0,2.24444 -1.76717,4.05717 -3.94777,4.05717 -2.1806,0 -3.94961,-1.81273 -3.94961,-4.05717 0,-2.24444 1.76901,-4.05717 3.94961,-4.05717 z"
       id="path49"
       inkscape:label="OUTLINE_X" /><path
       style="baseline-shift:baseline;display:inline;overflow:visible;vector-effect:none;fill:none;enable-background:accumulate;stop-color:#000000"
       d="m 159.70639,105.4997 a 2.8500633,2.925513 0 0 1 -2.85006,2.92552 2.8500633,2.925513 0 0 1 -2.85006,-2.92552 2.8500633,2.925513 0 0 1 2.85006,-2.92551 2.8500633,2.925513 0 0 1 2.85006,2.92551 z"
       id="path196"
       inkscape:label="BUTTON_VIEW" /><path
       style="baseline-shift:baseline;display:inline;overflow:visible;vector-effect:none;fill:#ffffff;enable-background:accumulate;stop-color:#000000"
       d="m 156.85685,102.42451 c -1.65726,0 -3,1.37953 -3,3.07422 0,1.69469 1.34274,3.07617 3,3.07617 1.65726,0 3,-1.38148 3,-3.07617 0,-1.69469 -1.34274,-3.07422 -3,-3.07422 z m 0,0.29883 c 1.49083,0 2.69922,1.23865 2.69922,2.77539 0,1.53674 -1.20838,2.77734 -2.69922,2.77734 -1.49084,0 -2.70118,-1.2406 -2.70117,-2.77734 0,-1.53674 1.21034,-2.77539 2.70117,-2.77539 z"
       id="path197"
       inkscape:label="OUTLINE_VIEW" /><path
       style="baseline-shift:baseline;display:inline;overflow:visible;vector-effect:none;fill:none;enable-background:accumulate;stop-color:#000000"
       d="m 178.73162,105.49971 a 2.8500633,2.925513 0 0 1 -2.85006,2.92551 2.8500633,2.925513 0 0 1 -2.85006,-2.92551 2.8500633,2.925513 0 0 1 2.85006,-2.92552 2.8500633,2.925513 0 0 1 2.85006,2.92552 z"
       id="path198"
       inkscape:label="BUTTON_MENU" /><path
       style="baseline-shift:baseline;display:inline;overflow:visible;vector-effect:none;fill:#ffffff;enable-background:accumulate;stop-color:#000000"
       d="m 175.88224,102.42451 c -1.65726,0 -3,1.38148 -3,3.07617 0,1.69469 1.34275,3.07422 3,3.07422 1.65726,0 3,-1.37953 3,-3.07422 1e-5,-1.69469 -1.34274,-3.07617 -3,-3.07617 z m 0,0.29883 c 1.49084,0 2.69922,1.2406 2.69922,2.77734 0,1.53674 -1.20839,2.77539 -2.69922,2.77539 -1.49083,0 -2.70117,-1.23865 -2.70117,-2.77539 0,-1.53674 1.21034,-2.77734 2.70117,-2.77734 z"
       id="path199"
       inkscape:label="OUTLINE_MENU" /><path
       id="path13"
       style="opacity:0.5;fill:#ffffff;stroke:none;stroke-width:0.151319;stroke-dasharray:none"
       d="m 164.33601,90.3032 a 4.4774399,4.4726667 0 0 0 -1.19218,0.882633 c 0.74679,0.4669 1.41773,0.918969 2.02107,1.355473 -1.4884,1.211065 -2.43869,2.276465 -3.04375,3.161555 a 4.4774399,4.4726667 0 0 0 0.78652,1.42214 c 0.58099,-0.98228 1.60924,-2.23417 3.42046,-3.696411 1.84674,1.490901 2.87958,2.763041 3.45406,3.753771 a 4.4774399,4.4726667 0 0 0 0.80666,-1.3994 c -0.6021,-0.90071 -1.5643,-1.99373 -3.098,-3.241655 0.61706,-0.446436 1.30493,-0.909311 2.07223,-1.387512 a 4.4774399,4.4726667 0 0 0 -1.20665,-0.873332 c -0.75042,0.471396 -1.42385,0.927841 -2.0283,1.367875 -0.59468,-0.432924 -1.25608,-0.881832 -1.99212,-1.345137 z"
       inkscape:label="OUTLINE_GUIDE_LOGO" /><path
       style="baseline-shift:baseline;display:inline;overflow:visible;vector-effect:none;fill:none;enable-background:accumulate;stop-color:#000000"
       d="m 170.91065,94.288051 a 4.5416956,4.5368538 0 0 1 -4.5417,4.53685 4.5416956,4.5368538 0 0 1 -4.5417,-4.53685 4.5416956,4.5368538 0 0 1 4.5417,-4.536857 4.5416956,4.5368538 0 0 1 4.5417,4.536857 z"
       id="path194"
       inkscape:label="BUTTON_GUIDE" /><path
       style="baseline-shift:baseline;display:inline;overflow:visible;vector-effect:none;fill:#ffffff;enable-background:accumulate;stop-color:#000000"
       d="m 166.36857,89.600294 c -2.58929,-2e-6 -4.69141,2.100709 -4.69141,4.687497 1e-5,2.58679 2.10212,4.68751 4.69141,4.6875 2.58929,1e-5 4.6914,-2.10071 4.69141,-4.6875 0,-2.586788 -2.10212,-4.687499 -4.69141,-4.687497 z m 0,0.300781 c 2.42733,-2e-6 4.39258,1.962234 4.39258,4.386716 0,2.42449 -1.96525,4.38672 -4.39258,4.38672 -2.42733,0 -4.39062,-1.96223 -4.39063,-4.38672 0,-2.424482 1.9633,-4.386718 4.39063,-4.386716 z"
       id="path195"
       inkscape:label="OUTLINE_GUIDE" /><g
       id="g70"
       style="display:inline"
       inkscape:label="RIGHT_STICK"
       transform="translate(103.20238,10.952856)"><path
         d="m 83.825588,117.63158 -1.94924,-1.94923 a 4.7311192,4.8563657 0 0 1 -3.38894,1.46761 4.7311192,4.8563657 0 0 1 -3.38842,-1.46761 l -1.94976,1.94975 a 7.4527903,7.6500883 0 0 0 5.33818,2.31149 7.4527903,7.6500883 0 0 0 5.33818,-2.31201 z"
         style="display:inline;fill:none;stroke-width:0.1"
         id="path65"
         inkscape:label="BUTTON_RSTICK_DOWN" /><path
         d="m 83.825588,106.95523 -1.94924,1.94924 a 4.7311192,4.8563657 0 0 1 1.34255,3.38894 4.7311192,4.8563657 0 0 1 -1.34255,3.38894 l 1.94924,1.94923 a 7.4527903,7.6500883 0 0 0 2.1146,-5.33817 7.4527903,7.6500883 0 0 0 -2.1146,-5.33818 z"
         style="display:inline;fill:none;stroke-width:0.1"
         id="path66"
         inkscape:label="BUTTON_RSTICK_RIGHT" /><path
         d="m 78.487408,104.64323 a 7.4527903,7.6500883 0 0 0 -5.33818,2.312 l 1.94976,1.94924 a 4.7311192,4.8563657 0 0 1 3.38842,-1.4671 4.7311192,4.8563657 0 0 1 3.38894,1.4671 l 1.94924,-1.94924 a 7.4527903,7.6500883 0 0 0 -5.33818,-2.312 z"
         style="display:inline;fill:none;stroke-width:0.1"
         id="path67"
         inkscape:label="BUTTON_RSTICK_UP" /><path
         id="path68"
         style="display:inline;fill:none;stroke:none;stroke-width:0.1"
         inkscape:label="BUTTON_RSTICK_PRESS"
         d="m 81.325458,112.33482 a 2.8377919,2.9129167 0 0 1 -2.83779,2.91293 2.8377919,2.9129167 0 0 1 -2.83779,-2.91293 2.8377919,2.9129167 0 0 1 2.83779,-2.91291 2.8377919,2.9129167 0 0 1 2.83779,2.91291 z" /><path
         d="m 73.149228,117.6321 1.94976,-1.94975 a 4.7311192,4.8563657 0 0 1 -1.34256,-3.38894 4.7311192,4.8563657 0 0 1 1.34256,-3.38894 l -1.94976,-1.94924 a 7.4527903,7.6500883 0 0 0 -2.1146,5.33818 7.4527903,7.6500883 0 0 0 2.1146,5.33869 z"
         style="display:inline;fill:none;stroke-width:0.1"
         id="path69"
         inkscape:label="BUTTON_RSTICK_LEFT" /><ellipse
         style="display:inline;fill:none;stroke:#ffffff;stroke-width:0.3;stroke-dasharray:none;stroke-opacity:0.4953844"
         id="ellipse65"
         cx="78.495651"
         cy="112.3255"
         rx="2.8377919"
         ry="2.9129167"
         inkscape:label="OUTLINE_RSTICK_PRESS" /><ellipse
         style="display:inline;fill:none;stroke:#ffffff;stroke-width:0.2;stroke-dasharray:none;stroke-opacity:1"
         id="ellipse69"
         cx="78.487411"
         cy="112.29375"
         rx="4.7311192"
         ry="4.8563657"
         inkscape:label="OUTLINE_RSTICK_INNER" /><ellipse
         style="display:inline;fill:none;stroke:#ffffff;stroke-width:0.3;stroke-dasharray:none;stroke-opacity:0.49744627"
         id="ellipse70"
         cx="78.501579"
         cy="112.30526"
         rx="7.4527903"
         ry="7.6500883"
         inkscape:label="OUTLINE_RSTICK_OUTER" /></g><g
       id="g206"
       style="display:inline"
       inkscape:label="LEFT_STICK"
       transform="translate(57.095631,-6.3897176)"><path
         d="m 83.825588,117.63158 -1.94924,-1.94923 a 4.7311192,4.8563657 0 0 1 -3.38894,1.46761 4.7311192,4.8563657 0 0 1 -3.38842,-1.46761 l -1.94976,1.94975 a 7.4527903,7.6500883 0 0 0 5.33818,2.31149 7.4527903,7.6500883 0 0 0 5.33818,-2.31201 z"
         style="display:inline;fill:none;stroke-width:0.1"
         id="path200"
         inkscape:label="BUTTON_LSTICK_DOWN" /><path
         d="m 83.825588,106.95523 -1.94924,1.94924 a 4.7311192,4.8563657 0 0 1 1.34255,3.38894 4.7311192,4.8563657 0 0 1 -1.34255,3.38894 l 1.94924,1.94923 a 7.4527903,7.6500883 0 0 0 2.1146,-5.33817 7.4527903,7.6500883 0 0 0 -2.1146,-5.33818 z"
         style="display:inline;fill:none;stroke-width:0.1"
         id="path201"
         inkscape:label="BUTTON_LSTICK_RIGHT" /><path
         d="m 78.487408,104.64323 a 7.4527903,7.6500883 0 0 0 -5.33818,2.312 l 1.94976,1.94924 a 4.7311192,4.8563657 0 0 1 3.38842,-1.4671 4.7311192,4.8563657 0 0 1 3.38894,1.4671 l 1.94924,-1.94924 a 7.4527903,7.6500883 0 0 0 -5.33818,-2.312 z"
         style="display:inline;fill:none;stroke-width:0.1"
         id="path202"
         inkscape:label="BUTTON_LSTICK_UP" /><path
         id="path203"
         style="display:inline;fill:none;stroke:none;stroke-width:0.1"
         inkscape:label="BUTTON_LSTICK_PRESS"
         d="m 81.325458,112.33482 a 2.8377919,2.9129167 0 0 1 -2.83779,2.91293 2.8377919,2.9129167 0 0 1 -2.83779,-2.91293 2.8377919,2.9129167 0 0 1 2.83779,-2.91291 2.8377919,2.9129167 0 0 1 2.83779,2.91291 z" /><path
         d="m 73.149228,117.6321 1.94976,-1.94975 a 4.7311192,4.8563657 0 0 1 -1.34256,-3.38894 4.7311192,4.8563657 0 0 1 1.34256,-3.38894 l -1.94976,-1.94924 a 7.4527903,7.6500883 0 0 0 -2.1146,5.33818 7.4527903,7.6500883 0 0 0 2.1146,5.33869 z"
         style="display:inline;fill:none;stroke-width:0.1"
         id="path204"
         inkscape:label="BUTTON_LSTICK_LEFT" /><ellipse
         style="display:inline;fill:none;stroke:#ffffff;stroke-width:0.3;stroke-dasharray:none;stroke-opacity:0.50034994"
         id="ellipse204"
         cx="78.495651"
         cy="112.3255"
         rx="2.8377919"
         ry="2.9129167"
         inkscape:label="OUTLINE_LSTICK_PRESS" /><ellipse
         style="display:inline;fill:none;stroke:#ffffff;stroke-width:0.2;stroke-dasharray:none;stroke-opacity:1"
         id="ellipse205"
         cx="78.487411"
         cy="112.29375"
         rx="4.7311192"
         ry="4.8563657"
         inkscape:label="OUTLINE_LSTICK_INNER" /><ellipse
         style="display:inline;fill:none;stroke:#ffffff;stroke-width:0.3;stroke-dasharray:none;stroke-opacity:0.50336713"
         id="ellipse206"
         cx="78.501579"
         cy="112.30526"
         rx="7.4527903"
         ry="7.6500883"
         inkscape:label="OUTLINE_LSTICK_OUTER" /></g><g
       id="g108"
       style="display:inline"
       inkscape:label="D-PAD"
       transform="translate(57.08146,-6.401659)"><path
         d="m 90.293197,122.21941 c -2.563471,0.95311 -4.591603,3.05216 -5.497339,5.69268 h 0.315743 c 0.879764,-2.47632 2.78185,-4.44585 5.181596,-5.37228 z m 6.21254,5.2e-4 v 0.32091 c 2.398771,0.92677 4.300013,2.89564 5.179533,5.37125 h 0.26613 c 0.0174,0 0.0345,2.1e-4 0.0517,10e-4 -0.90571,-2.64047 -2.933928,-4.73962 -5.497343,-5.69319 z m 5.497343,11.90212 c -0.0159,7.1e-4 -0.032,0.001 -0.0481,0.001 h -0.26975 c -0.87955,2.476 -2.780828,4.44607 -5.179533,5.37331 v 0.0739 c 6e-6,0.0883 -0.01063,0.17409 -0.03101,0.25632 2.577942,-0.94813 4.618863,-3.05359 5.528353,-5.70456 z m -17.207222,0.001 c 0.909389,2.65082 2.950156,4.75622 5.527828,5.70404 -0.01986,-0.0811 -0.0305,-0.16567 -0.03049,-0.25269 v -0.0775 c -2.39968,-0.92691 -4.301799,-2.89712 -5.181596,-5.37383 z"
         style="baseline-shift:baseline;display:inline;overflow:visible;opacity:1;vector-effect:none;fill:#ffffff;enable-background:accumulate;stop-color:#000000;stop-opacity:1"
         id="path193"
         sodipodi:nodetypes="ccccccccsccccsccscccccsccc"
         inkscape:label="D-PAD-CIRCLE_OUTLINE" /><path
         d="m 91.05284,121.39672 c -0.417463,1.5e-4 -0.759486,0.34011 -0.759643,0.75758 v 5.75779 h -5.709213 c -0.44394,1.9e-4 -0.80682,0.36273 -0.806669,0.80667 v 4.64623 c 1.57e-4,0.41747 0.340631,0.75794 0.758094,0.75809 h 5.757788 v 5.45135 c -5.5e-5,0.58688 0.479203,1.06581 1.066084,1.06608 h 4.076237 c 0.589098,4e-5 1.070255,-0.48112 1.070219,-1.07022 v -5.44721 h 5.449283 c 0.58711,5e-5 1.06666,-0.47949 1.0666,-1.0666 v -4.07624 c 4e-5,-0.5891 -0.48112,-1.06819 -1.07022,-1.06815 h -5.445663 v -5.70921 c -1.94e-4,-0.44395 -0.364279,-0.80631 -0.808219,-0.80616 z m 0,0.29869 h 4.644678 c 0.281818,-9e-5 0.507339,0.22565 0.507462,0.50747 v 6.0079 h 5.74642 c 0.42696,-3e-5 0.76949,0.3425 0.76946,0.76946 v 4.07624 c 4e-5,0.42496 -0.34088,0.76795 -0.76584,0.76791 h -5.75004 v 5.7459 c 2.6e-5,0.42696 -0.342508,0.76949 -0.769462,0.76946 h -4.076237 c -0.424788,-1.9e-4 -0.765368,-0.34053 -0.765328,-0.76532 v -5.75004 h -6.058544 c -0.255409,-9e-5 -0.459308,-0.20399 -0.459404,-0.4594 v -4.64623 c -9.6e-5,-0.28182 0.226161,-0.50786 0.507979,-0.50798 h 6.009969 v -6.05648 c 9.6e-5,-0.25541 0.203478,-0.4588 0.458887,-0.45889 z"
         style="baseline-shift:baseline;display:inline;overflow:visible;opacity:1;vector-effect:none;enable-background:accumulate;stop-color:#000000;stop-opacity:1"
         id="path192"
         inkscape:label="D-PAD_OUTLINE" /><path
         id="rect10"
         style="display:inline;fill:none;fill-opacity:1;stroke:#ffffff;stroke-width:0.302493;stroke-dasharray:none;stroke-opacity:1"
         d="m 83.927906,133.40393 a 0.60940896,0.61974015 0 0 0 0.60919,0.61952 h 5.906353 v 5.69436 a 0.91601397,0.93154297 0 0 0 0.915589,0.93164 h 4.076214 a 0.91966407,0.93525495 0 0 0 0.919719,-0.93532 v -5.69068 h 5.598929 a 0.91601397,0.93154297 0 0 0 0.9161,-0.93164 v -4.1448 a 0.91966407,0.93525495 0 0 0 -0.91972,-0.9353 h -5.595309 v -5.95761 a 0.65701081,0.66814898 0 0 0 -0.657234,-0.66787 h -4.645098 a 0.60940896,0.61974015 0 0 0 -0.60919,0.61952 v 6.00596 H 84.58463 a 0.65701081,0.66814898 0 0 0 -0.656724,0.66838 z"
         inkscape:label="D-PAD-S" /><path
         d="m 90.443058,133.97373 2.944007,-2.94865 -2.944007,-2.94918 -6.041491,0.0114 a 0.65709726,0.65709726 0 0 0 -0.474907,0.63149 v 4.64571 a 0.60948915,0.60948915 0 0 0 0.609265,0.60926 z"
         style="display:inline;opacity:1;fill:none;stroke-width:0.0667989"
         id="path174"
         inkscape:label="BUTTON_DPAD_LEFT" /><path
         d="m 96.329521,139.78733 0.0015,-5.8136 -2.944006,-2.94865 -2.944007,2.94865 v 5.60018 a 0.9161345,0.9161345 0 0 0 0.915707,0.91622 h 4.076753 a 0.91978508,0.91978508 0 0 0 0.894003,-0.70228 z"
         style="display:inline;opacity:1;fill:none;stroke-width:0.0667989"
         id="path171"
         inkscape:label="BUTTON_DPAD_DOWN" /><path
         d="m 96.331071,128.0759 -2.944006,2.94918 2.944006,2.94865 5.779489,-0.0134 a 0.9161345,0.9161345 0 0 0 0.76068,-0.90279 v -4.07624 a 0.91978508,0.91978508 0 0 0 -0.86713,-0.91829 z"
         style="display:inline;opacity:1;fill:none;stroke-width:0.0667989"
         id="path167"
         inkscape:label="BUTTON_DPAD_RIGHT" /><path
         d="m 96.329004,122.01839 a 0.65709726,0.65709726 0 0 0 -0.630969,-0.47284 h -4.645712 a 0.60948915,0.60948915 0 0 0 -0.609265,0.60927 v 5.90661 0.0145 l 2.944007,2.94918 2.944006,-2.94918 z"
         style="display:inline;opacity:1;fill:none;stroke-width:0.0667989"
         id="path166"
         inkscape:label="BUTTON_DPAD_UP" /></g></g></svg>
